M48
METRIC,LZ,000.000
;FILE_FORMAT=3:3
;TYPE=PLATED
;Layer: PTH_Through
;EasyEDA v6.5.39, 2024-01-11 12:10:10
;6726c83836ac4f208e7d9a6969430780,b65fc79a3ba447d2aedd2257ff82dca6,10
;Gerber Generator version 0.2
;Holesize 1 = 0.310 mm
T01C0.310
;Holesize 2 = 0.351 mm
T02C0.351
;Holesize 3 = 0.701 mm
T03C0.701
;Holesize 4 = 0.889 mm
T04C0.889
;Holesize 5 = 2.000 mm
T05C2.000
%
G05
G90
T01
X037846Y048006
X031496Y041910
X034290Y038608
X034290Y037592
X058674Y032004
X060579Y051054
X059436Y049530
X057150Y051054
X057150Y053340
X039370Y051308
X043815Y038862
X040132Y048006
X032004Y051435
X043434Y029337
X038100Y033274
X036068Y028956
X038100Y032258
X051435Y029337
X051435Y031242
X049149Y032004
X043053Y037338
X045049Y042001
T02
X059436Y038862
X059436Y041529
T03
X038310Y055973G85X038310Y055172
X045510Y055973G85X045510Y055173
X044335Y052773
X039485Y052773
X028326Y030226G85X028126Y030226
X030326Y030226G85X030126Y030226
X032326Y030226G85X032126Y030226
X034326Y029826G85X034326Y030626
X026126Y029826G85X026126Y030626
T04
X066675Y033655
X066675Y036195
X066675Y038735
X066675Y041275
X024384Y034798
X024384Y037338
X024384Y039878
X024384Y042418
X024384Y044958
X024384Y047498
X024384Y050038
X024384Y052578
X035814Y056896
X033274Y056896
X030734Y056896
X028194Y056896
T05
X066802Y028194
X066802Y056642
X024384Y056642
X024384Y028194
M30
