G04 Layer: TopSilkscreenLayer*
G04 EasyEDA v6.5.39, 2024-01-11 12:10:10*
G04 6726c83836ac4f208e7d9a6969430780,b65fc79a3ba447d2aedd2257ff82dca6,10*
G04 Gerber Generator version 0.2*
G04 Scale: 100 percent, Rotated: No, Reflected: No *
G04 Dimensions in millimeters *
G04 leading zeros omitted , absolute positions ,4 integer and 5 decimal *
%FSLAX45Y45*%
%MOMM*%

%ADD10C,0.1524*%
%ADD11C,0.2540*%
%ADD12C,0.2032*%
%ADD13C,0.2030*%
%ADD14C,0.2000*%
%ADD15C,0.4000*%
%ADD16C,0.0151*%

%LPD*%
G36*
X5893308Y5817514D02*
G01*
X5892292Y5815685D01*
X5892292Y5595315D01*
X5893765Y5593842D01*
X5899607Y5593842D01*
X5900775Y5594959D01*
X5900775Y5816041D01*
X5900166Y5817514D01*
G37*
G36*
X5926632Y5817514D02*
G01*
X5925362Y5815939D01*
X5925108Y5598769D01*
X5925667Y5594756D01*
X5929122Y5593130D01*
X5929426Y5591251D01*
X5930950Y5590082D01*
X6027216Y5590082D01*
X6027436Y5588508D01*
X6036106Y5588508D01*
X6036665Y5590082D01*
X6043777Y5590082D01*
X6043777Y5589574D01*
X6042101Y5587034D01*
X6040729Y5585460D01*
X6037935Y5581599D01*
X6037275Y5582818D01*
X6036106Y5588508D01*
X6027436Y5588508D01*
X6027826Y5585714D01*
X6027826Y5571134D01*
X6039510Y5571134D01*
X6039510Y5572810D01*
X6046317Y5581853D01*
X6049721Y5586831D01*
X6052261Y5590082D01*
X6085484Y5590082D01*
X6085230Y5455767D01*
X6077508Y5451805D01*
X6075680Y5452313D01*
X6075222Y5453837D01*
X6074613Y5459018D01*
X6073749Y5460593D01*
X6071870Y5469077D01*
X6069025Y5479643D01*
X6068009Y5481472D01*
X6066790Y5486196D01*
X6065266Y5490921D01*
X6063894Y5493359D01*
X6063894Y5590082D01*
X6055461Y5590082D01*
X6055461Y5518810D01*
X6054648Y5518810D01*
X6054039Y5522772D01*
X6052820Y5524652D01*
X6052108Y5528411D01*
X6050889Y5530291D01*
X6050178Y5534507D01*
X6048908Y5536336D01*
X6048857Y5538724D01*
X6047435Y5542483D01*
X6046470Y5547106D01*
X6045301Y5549493D01*
X6044590Y5554218D01*
X6043625Y5555996D01*
X6041288Y5565444D01*
X6039510Y5571134D01*
X6027826Y5571134D01*
X6027826Y5570423D01*
X6026962Y5568289D01*
X6018682Y5558891D01*
X6012383Y5551373D01*
X5993587Y5526379D01*
X5993587Y5525363D01*
X5992723Y5525363D01*
X5990183Y5521401D01*
X5986068Y5515914D01*
X5986068Y5515102D01*
X5984900Y5513882D01*
X5980277Y5506821D01*
X5979261Y5505907D01*
X5976721Y5502097D01*
X5976721Y5500979D01*
X5975908Y5500979D01*
X5972962Y5496407D01*
X5972962Y5495340D01*
X5972200Y5495340D01*
X5969203Y5490768D01*
X5969203Y5489702D01*
X5968441Y5489702D01*
X5965444Y5485130D01*
X5965444Y5484114D01*
X5964631Y5484114D01*
X5962192Y5479999D01*
X5961989Y5476494D01*
X5964275Y5474716D01*
X5965494Y5474716D01*
X5968034Y5476341D01*
X5973876Y5483758D01*
X5973876Y5485028D01*
X5974689Y5485028D01*
X5977991Y5490413D01*
X5987948Y5507786D01*
X5989472Y5511038D01*
X5990082Y5511546D01*
X5991707Y5514340D01*
X5993231Y5517642D01*
X6003899Y5534609D01*
X6003899Y5535218D01*
X6005372Y5536844D01*
X6011164Y5544312D01*
X6026962Y5559653D01*
X6027572Y5559044D01*
X6027587Y5552541D01*
X6036259Y5552541D01*
X6038596Y5550357D01*
X6038646Y5548122D01*
X6040069Y5544362D01*
X6041288Y5539689D01*
X6043828Y5532170D01*
X6044742Y5527954D01*
X6045962Y5525617D01*
X6046622Y5521350D01*
X6047841Y5519470D01*
X6048502Y5515610D01*
X6049822Y5513882D01*
X6049873Y5511952D01*
X6051702Y5508294D01*
X6051702Y5506821D01*
X6053582Y5503113D01*
X6053582Y5501690D01*
X6055461Y5498185D01*
X6055461Y5470499D01*
X6064859Y5470499D01*
X6064859Y5468366D01*
X6066688Y5462270D01*
X6068263Y5455716D01*
X6069279Y5449163D01*
X6068618Y5447284D01*
X6064402Y5445302D01*
X6063894Y5445810D01*
X6063894Y5470499D01*
X6055461Y5470499D01*
X6055461Y5443220D01*
X6077407Y5443220D01*
X6079134Y5445607D01*
X6080658Y5445658D01*
X6082893Y5447385D01*
X6084773Y5447842D01*
X6085484Y5447487D01*
X6085484Y5337352D01*
X6084620Y5336844D01*
X6084011Y5337810D01*
X6084112Y5390083D01*
X6083198Y5392877D01*
X6082131Y5416346D01*
X6081268Y5419140D01*
X6079896Y5431790D01*
X6079032Y5434685D01*
X6078372Y5440730D01*
X6077407Y5443220D01*
X6055461Y5443220D01*
X6055461Y5441238D01*
X6053429Y5439054D01*
X6051854Y5439054D01*
X6049467Y5437225D01*
X6048095Y5437225D01*
X6045708Y5435346D01*
X6044336Y5435346D01*
X6041948Y5433466D01*
X6040577Y5433466D01*
X6038138Y5431485D01*
X6036462Y5431840D01*
X6036259Y5552541D01*
X6027587Y5552541D01*
X6027877Y5429910D01*
X6027267Y5426202D01*
X6022441Y5423865D01*
X6013551Y5418836D01*
X6010706Y5417515D01*
X6006947Y5415229D01*
X6005068Y5414314D01*
X5995466Y5408371D01*
X5995466Y5407812D01*
X5993130Y5406745D01*
X5983224Y5399176D01*
X5975654Y5392420D01*
X5966002Y5382412D01*
X5959348Y5374132D01*
X5952439Y5363819D01*
X5946902Y5353964D01*
X5941060Y5341620D01*
X5941060Y5340553D01*
X5939275Y5337505D01*
X5947156Y5337505D01*
X5947156Y5339384D01*
X5953912Y5353507D01*
X5957976Y5360060D01*
X5959094Y5362397D01*
X5962040Y5366156D01*
X5963259Y5368442D01*
X5971844Y5379262D01*
X5982258Y5389626D01*
X5990539Y5396636D01*
X6004153Y5406034D01*
X6006490Y5407202D01*
X6013043Y5411368D01*
X6026658Y5418429D01*
X6027216Y5418429D01*
X6027775Y5416346D01*
X6027826Y5338775D01*
X6027468Y5337860D01*
X6036259Y5337860D01*
X6036259Y5422442D01*
X6038342Y5424576D01*
X6054750Y5432856D01*
X6055461Y5432450D01*
X6055461Y5337860D01*
X6063894Y5337860D01*
X6063894Y5437682D01*
X6066485Y5438698D01*
X6067907Y5439918D01*
X6070447Y5440476D01*
X6071971Y5438140D01*
X6072784Y5430418D01*
X6074206Y5423814D01*
X6075121Y5413044D01*
X6076137Y5407406D01*
X6076645Y5338978D01*
X6075680Y5336387D01*
X6064504Y5336387D01*
X6063894Y5337860D01*
X6055461Y5337860D01*
X6054902Y5336387D01*
X6038342Y5336387D01*
X6036259Y5337860D01*
X6027468Y5337860D01*
X6026912Y5336387D01*
X5948273Y5336387D01*
X5947156Y5337505D01*
X5939275Y5337505D01*
X5938621Y5336387D01*
X5934456Y5336387D01*
X5928868Y5330698D01*
X5928868Y5284571D01*
X5938316Y5284571D01*
X5938316Y5301894D01*
X5940552Y5319014D01*
X5942025Y5323281D01*
X5942025Y5325465D01*
X5943955Y5327954D01*
X6075883Y5327700D01*
X6076137Y5321147D01*
X6075121Y5310378D01*
X6074257Y5291632D01*
X6072022Y5274208D01*
X6071412Y5273141D01*
X6070092Y5265521D01*
X6069177Y5264404D01*
X6068517Y5260492D01*
X6066739Y5256936D01*
X6066739Y5255158D01*
X6065367Y5252669D01*
X6062319Y5246116D01*
X6059068Y5240477D01*
X6056172Y5237276D01*
X6050940Y5232298D01*
X6048146Y5230063D01*
X6040729Y5225237D01*
X6039967Y5225237D01*
X6031941Y5221478D01*
X6030823Y5221478D01*
X6027369Y5219598D01*
X6025642Y5219598D01*
X6022187Y5217871D01*
X6018682Y5217210D01*
X6016802Y5215991D01*
X6013043Y5215382D01*
X6010249Y5214061D01*
X6001512Y5212486D01*
X5995720Y5213502D01*
X5989624Y5214112D01*
X5986678Y5215280D01*
X5982665Y5215991D01*
X5979769Y5217718D01*
X5978042Y5217718D01*
X5975654Y5219598D01*
X5974130Y5219700D01*
X5969914Y5222392D01*
X5967577Y5223611D01*
X5964326Y5225745D01*
X5963818Y5226405D01*
X5957722Y5231536D01*
X5955080Y5234279D01*
X5950153Y5240477D01*
X5948172Y5243779D01*
X5943955Y5252669D01*
X5943295Y5255971D01*
X5942126Y5258308D01*
X5941466Y5263438D01*
X5940196Y5267706D01*
X5938316Y5284571D01*
X5928868Y5284571D01*
X5928868Y5111445D01*
X5930900Y5108854D01*
X5936284Y5109260D01*
X5937808Y5110480D01*
X5937808Y5247233D01*
X5938367Y5248706D01*
X5939180Y5248706D01*
X5939180Y5247030D01*
X5943295Y5239004D01*
X5946851Y5233924D01*
X5950610Y5229250D01*
X5955842Y5224272D01*
X5964732Y5217464D01*
X5972251Y5213248D01*
X5976569Y5211165D01*
X5978398Y5211165D01*
X5979566Y5209997D01*
X5985865Y5208320D01*
X5997346Y5206034D01*
X6005169Y5206034D01*
X6008370Y5207304D01*
X6013297Y5207965D01*
X6013754Y5208778D01*
X6019088Y5209895D01*
X6021019Y5211064D01*
X6024676Y5211724D01*
X6026658Y5212943D01*
X6030366Y5213604D01*
X6032246Y5214924D01*
X6033566Y5214924D01*
X6042609Y5219141D01*
X6043218Y5219141D01*
X6050026Y5223103D01*
X6051550Y5224526D01*
X6053734Y5225948D01*
X6057188Y5228793D01*
X6062472Y5234228D01*
X6068618Y5243779D01*
X6073292Y5253736D01*
X6073292Y5255514D01*
X6074308Y5256530D01*
X6078372Y5271922D01*
X6079388Y5280558D01*
X6080252Y5282692D01*
X6081369Y5299100D01*
X6081928Y5300065D01*
X6082995Y5326989D01*
X6083706Y5327700D01*
X6180328Y5327954D01*
X6181598Y5326888D01*
X6181598Y5110480D01*
X6183071Y5109260D01*
X6188456Y5108854D01*
X6190488Y5111445D01*
X6190488Y5330698D01*
X6184950Y5336387D01*
X6094425Y5336387D01*
X6093917Y5338470D01*
X6094171Y5452364D01*
X6108700Y5459222D01*
X6109766Y5459222D01*
X6110935Y5460644D01*
X6112560Y5460644D01*
X6114948Y5462524D01*
X6116370Y5462524D01*
X6160719Y5484114D01*
X6244640Y5526786D01*
X6246114Y5528157D01*
X6247587Y5528157D01*
X6249974Y5530037D01*
X6251295Y5530037D01*
X6253683Y5531916D01*
X6255054Y5531916D01*
X6257442Y5533796D01*
X6258814Y5533796D01*
X6261049Y5535472D01*
X6299047Y5554980D01*
X6300520Y5556300D01*
X6301943Y5556300D01*
X6304330Y5558180D01*
X6305600Y5558180D01*
X6307886Y5559755D01*
X6338417Y5575604D01*
X6339890Y5576925D01*
X6341262Y5576925D01*
X6343497Y5578500D01*
X6363004Y5588914D01*
X6364173Y5590082D01*
X6365697Y5590082D01*
X6368084Y5591962D01*
X6368643Y5591962D01*
X6389370Y5603798D01*
X6392164Y5606338D01*
X6392672Y5610250D01*
X6391503Y5611622D01*
X6386728Y5611622D01*
X6383426Y5610758D01*
X6379210Y5609285D01*
X6366560Y5603595D01*
X6365138Y5602732D01*
X6361836Y5601360D01*
X6329527Y5584698D01*
X6329019Y5584190D01*
X6322618Y5580938D01*
X6321653Y5579770D01*
X6320129Y5579770D01*
X6317945Y5578246D01*
X6303975Y5570778D01*
X6300673Y5568492D01*
X6298387Y5567934D01*
X6297269Y5566613D01*
X6296406Y5566613D01*
X6287363Y5561380D01*
X6284518Y5560060D01*
X6265519Y5549239D01*
X6264351Y5548782D01*
X6260592Y5546496D01*
X6224473Y5526532D01*
X6224016Y5525922D01*
X6219088Y5523433D01*
X6207353Y5516880D01*
X6207150Y5516575D01*
X6203848Y5515051D01*
X6200089Y5512765D01*
X6193536Y5509412D01*
X6186982Y5505653D01*
X6176213Y5499862D01*
X6149492Y5486044D01*
X6131407Y5477154D01*
X6117132Y5470398D01*
X6115710Y5469534D01*
X6107734Y5466080D01*
X6094425Y5459730D01*
X6093917Y5459730D01*
X6093917Y5590082D01*
X6180937Y5590082D01*
X6182461Y5591251D01*
X6182766Y5593130D01*
X6186220Y5594756D01*
X6186779Y5598769D01*
X6186525Y5815939D01*
X6185204Y5817514D01*
X6178905Y5817514D01*
X6177838Y5816244D01*
X6177584Y5598769D01*
X6058306Y5598515D01*
X6058306Y5599684D01*
X6065774Y5611215D01*
X6065774Y5611622D01*
X6070498Y5618937D01*
X6074156Y5625490D01*
X6080810Y5639257D01*
X6080810Y5640578D01*
X6082182Y5641746D01*
X6082741Y5644896D01*
X6084011Y5645962D01*
X6084671Y5648909D01*
X6086398Y5652211D01*
X6086398Y5653278D01*
X6090158Y5661304D01*
X6090158Y5663133D01*
X6091580Y5664301D01*
X6091580Y5665825D01*
X6093866Y5670499D01*
X6093917Y5672480D01*
X6095339Y5673648D01*
X6095339Y5675172D01*
X6097625Y5679897D01*
X6097676Y5681878D01*
X6098997Y5682945D01*
X6099606Y5686450D01*
X6100470Y5687466D01*
X6102451Y5693003D01*
X6103670Y5700522D01*
X6104686Y5704281D01*
X6105499Y5717844D01*
X6104839Y5724652D01*
X6103315Y5726379D01*
X6103315Y5727242D01*
X6099810Y5730849D01*
X6093764Y5733694D01*
X6082436Y5733796D01*
X6073546Y5729122D01*
X6065062Y5723483D01*
X6051042Y5712764D01*
X6044895Y5706110D01*
X6039561Y5697677D01*
X6034836Y5687771D01*
X6034836Y5686653D01*
X6032957Y5683148D01*
X6032957Y5681472D01*
X6031687Y5678932D01*
X6031026Y5674715D01*
X6029756Y5670042D01*
X6029147Y5662523D01*
X6027877Y5656427D01*
X6026861Y5644286D01*
X6025946Y5640933D01*
X6025134Y5619851D01*
X6025252Y5617057D01*
X6031992Y5617057D01*
X6033008Y5630621D01*
X6033820Y5649112D01*
X6034887Y5655970D01*
X6036157Y5666740D01*
X6037732Y5674715D01*
X6039561Y5681268D01*
X6040932Y5683961D01*
X6041542Y5687568D01*
X6042812Y5688685D01*
X6042812Y5689650D01*
X6047435Y5698591D01*
X6053277Y5705652D01*
X6062726Y5713831D01*
X6063335Y5713882D01*
X6069380Y5718454D01*
X6074918Y5722061D01*
X6075426Y5722670D01*
X6082436Y5726633D01*
X6084773Y5727446D01*
X6094476Y5727141D01*
X6098844Y5722772D01*
X6098794Y5707532D01*
X6097270Y5702401D01*
X6096609Y5697220D01*
X6095441Y5694324D01*
X6094730Y5690209D01*
X6093510Y5687822D01*
X6092850Y5684113D01*
X6091682Y5682234D01*
X6091021Y5678932D01*
X6089802Y5677052D01*
X6089192Y5674106D01*
X6087364Y5670550D01*
X6087364Y5668924D01*
X6086500Y5668365D01*
X6085382Y5664860D01*
X6079845Y5652516D01*
X6079845Y5651144D01*
X6078474Y5650026D01*
X6077915Y5647994D01*
X6068009Y5628284D01*
X6065012Y5622899D01*
X6064300Y5621274D01*
X6063640Y5620766D01*
X6058560Y5611622D01*
X6057798Y5611622D01*
X6057798Y5610555D01*
X6051702Y5601462D01*
X6051702Y5600903D01*
X6049467Y5598515D01*
X6033770Y5598769D01*
X6032449Y5602986D01*
X6031992Y5617057D01*
X6025252Y5617057D01*
X6026150Y5598769D01*
X5934252Y5598769D01*
X5934049Y5816244D01*
X5932982Y5817514D01*
G37*
G36*
X6214618Y5817514D02*
G01*
X6213500Y5816396D01*
X6213500Y5594807D01*
X6214465Y5594197D01*
X6220002Y5593689D01*
X6222390Y5595264D01*
X6222136Y5816600D01*
X6220764Y5817514D01*
G37*
G36*
X5897016Y5332628D02*
G01*
X5896051Y5330799D01*
X5896051Y5111038D01*
X5897524Y5108956D01*
X5902960Y5108956D01*
X5904484Y5110683D01*
X5904484Y5331510D01*
X5903366Y5332628D01*
G37*
G36*
X6218682Y5332628D02*
G01*
X6217208Y5331155D01*
X6217259Y5111038D01*
X6217920Y5110022D01*
X6219952Y5108956D01*
X6224117Y5108956D01*
X6226149Y5111140D01*
X6226149Y5331053D01*
X6224422Y5332628D01*
G37*
D10*
X2627884Y4114800D02*
G01*
X2736850Y4114800D01*
X2627884Y4114800D02*
G01*
X2627884Y4161536D01*
X2632963Y4177029D01*
X2638297Y4182363D01*
X2648711Y4187444D01*
X2659125Y4187444D01*
X2669540Y4182363D01*
X2674620Y4177029D01*
X2679700Y4161536D01*
X2679700Y4114800D01*
X2679700Y4151121D02*
G01*
X2736850Y4187444D01*
X2627884Y4221734D02*
G01*
X2736850Y4221734D01*
X2627884Y4221734D02*
G01*
X2627884Y4289297D01*
X2679700Y4221734D02*
G01*
X2679700Y4263389D01*
X2627884Y4323587D02*
G01*
X2736850Y4323587D01*
X2627884Y4357878D02*
G01*
X2736850Y4357878D01*
X2627884Y4357878D02*
G01*
X2627884Y4394200D01*
X2632963Y4409947D01*
X2643377Y4420362D01*
X2653791Y4425442D01*
X2669540Y4430776D01*
X2695447Y4430776D01*
X2710941Y4425442D01*
X2721356Y4420362D01*
X2731770Y4409947D01*
X2736850Y4394200D01*
X2736850Y4357878D01*
X2627884Y4545076D02*
G01*
X2736850Y4545076D01*
X2627884Y4545076D02*
G01*
X2627884Y4591812D01*
X2632963Y4607305D01*
X2638297Y4612639D01*
X2648711Y4617720D01*
X2659125Y4617720D01*
X2669540Y4612639D01*
X2674620Y4607305D01*
X2679700Y4591812D01*
X2679700Y4545076D01*
X2679700Y4581397D02*
G01*
X2736850Y4617720D01*
X2653791Y4729987D02*
G01*
X2643377Y4724654D01*
X2632963Y4714239D01*
X2627884Y4704079D01*
X2627884Y4683252D01*
X2632963Y4672837D01*
X2643377Y4662423D01*
X2653791Y4657089D01*
X2669540Y4652010D01*
X2695447Y4652010D01*
X2710941Y4657089D01*
X2721356Y4662423D01*
X2731770Y4672837D01*
X2736850Y4683252D01*
X2736850Y4704079D01*
X2731770Y4714239D01*
X2721356Y4724654D01*
X2710941Y4729987D01*
X2627884Y4826507D02*
G01*
X2627884Y4774692D01*
X2674620Y4769357D01*
X2669540Y4774692D01*
X2664206Y4790186D01*
X2664206Y4805679D01*
X2669540Y4821428D01*
X2679700Y4831842D01*
X2695447Y4836921D01*
X2705861Y4836921D01*
X2721356Y4831842D01*
X2731770Y4821428D01*
X2736850Y4805679D01*
X2736850Y4790186D01*
X2731770Y4774692D01*
X2726690Y4769357D01*
X2716275Y4764278D01*
X2653791Y4876545D02*
G01*
X2648711Y4876545D01*
X2638297Y4881626D01*
X2632963Y4886960D01*
X2627884Y4897120D01*
X2627884Y4917947D01*
X2632963Y4928362D01*
X2638297Y4933695D01*
X2648711Y4938776D01*
X2659125Y4938776D01*
X2669540Y4933695D01*
X2685034Y4923281D01*
X2736850Y4871212D01*
X2736850Y4944110D01*
X2653791Y4983479D02*
G01*
X2648711Y4983479D01*
X2638297Y4988560D01*
X2632963Y4993894D01*
X2627884Y5004307D01*
X2627884Y5025136D01*
X2632963Y5035550D01*
X2638297Y5040629D01*
X2648711Y5045710D01*
X2659125Y5045710D01*
X2669540Y5040629D01*
X2685034Y5030215D01*
X2736850Y4978400D01*
X2736850Y5051044D01*
X6361684Y3384042D02*
G01*
X6366763Y3373628D01*
X6377177Y3363213D01*
X6387591Y3357879D01*
X6403340Y3352800D01*
X6429247Y3352800D01*
X6444741Y3357879D01*
X6455156Y3363213D01*
X6465570Y3373628D01*
X6470650Y3384042D01*
X6470650Y3404870D01*
X6465570Y3415029D01*
X6455156Y3425444D01*
X6444741Y3430778D01*
X6429247Y3435857D01*
X6403340Y3435857D01*
X6387591Y3430778D01*
X6377177Y3425444D01*
X6366763Y3415029D01*
X6361684Y3404870D01*
X6361684Y3384042D01*
X6361684Y3470147D02*
G01*
X6470650Y3470147D01*
X6470650Y3470147D02*
G01*
X6470650Y3532631D01*
X6361684Y3566921D02*
G01*
X6470650Y3566921D01*
X6361684Y3566921D02*
G01*
X6361684Y3634486D01*
X6413500Y3566921D02*
G01*
X6413500Y3608323D01*
X6470650Y3566921D02*
G01*
X6470650Y3634486D01*
X6361684Y3668776D02*
G01*
X6470650Y3668776D01*
X6361684Y3668776D02*
G01*
X6361684Y3705097D01*
X6366763Y3720592D01*
X6377177Y3731005D01*
X6387591Y3736339D01*
X6403340Y3741420D01*
X6429247Y3741420D01*
X6444741Y3736339D01*
X6455156Y3731005D01*
X6465570Y3720592D01*
X6470650Y3705097D01*
X6470650Y3668776D01*
X6361684Y3886962D02*
G01*
X6366763Y3871213D01*
X6382511Y3860800D01*
X6408420Y3855720D01*
X6423913Y3855720D01*
X6450075Y3860800D01*
X6465570Y3871213D01*
X6470650Y3886962D01*
X6470650Y3897376D01*
X6465570Y3912870D01*
X6450075Y3923284D01*
X6423913Y3928363D01*
X6408420Y3928363D01*
X6382511Y3923284D01*
X6366763Y3912870D01*
X6361684Y3897376D01*
X6361684Y3886962D01*
X6444741Y3967987D02*
G01*
X6450075Y3962654D01*
X6455156Y3967987D01*
X6450075Y3973068D01*
X6444741Y3967987D01*
X6398006Y4074921D02*
G01*
X6413500Y4069842D01*
X6423913Y4059428D01*
X6429247Y4043679D01*
X6429247Y4038600D01*
X6423913Y4023105D01*
X6413500Y4012692D01*
X6398006Y4007357D01*
X6392925Y4007357D01*
X6377177Y4012692D01*
X6366763Y4023105D01*
X6361684Y4038600D01*
X6361684Y4043679D01*
X6366763Y4059428D01*
X6377177Y4069842D01*
X6398006Y4074921D01*
X6423913Y4074921D01*
X6450075Y4069842D01*
X6465570Y4059428D01*
X6470650Y4043679D01*
X6470650Y4033520D01*
X6465570Y4017771D01*
X6455156Y4012692D01*
X6377177Y4171695D02*
G01*
X6366763Y4166362D01*
X6361684Y4150868D01*
X6361684Y4140454D01*
X6366763Y4124960D01*
X6382511Y4114545D01*
X6408420Y4109212D01*
X6434327Y4109212D01*
X6455156Y4114545D01*
X6465570Y4124960D01*
X6470650Y4140454D01*
X6470650Y4145534D01*
X6465570Y4161281D01*
X6455156Y4171695D01*
X6439661Y4176776D01*
X6434327Y4176776D01*
X6418834Y4171695D01*
X6408420Y4161281D01*
X6403340Y4145534D01*
X6403340Y4140454D01*
X6408420Y4124960D01*
X6418834Y4114545D01*
X6434327Y4109212D01*
X6346190Y4221479D02*
G01*
X6377177Y4221479D01*
X5239501Y3390892D02*
G01*
X5234167Y3401306D01*
X5218673Y3416800D01*
X5327639Y3416800D01*
X3506977Y5194807D02*
G01*
X3501643Y5205221D01*
X3491229Y5215636D01*
X3481070Y5220715D01*
X3460241Y5220715D01*
X3449827Y5215636D01*
X3439413Y5205221D01*
X3434079Y5194807D01*
X3429000Y5179060D01*
X3429000Y5153152D01*
X3434079Y5137657D01*
X3439413Y5127244D01*
X3449827Y5116829D01*
X3460241Y5111750D01*
X3481070Y5111750D01*
X3491229Y5116829D01*
X3501643Y5127244D01*
X3506977Y5137657D01*
X3541268Y5199887D02*
G01*
X3551681Y5205221D01*
X3567175Y5220715D01*
X3567175Y5111750D01*
X3568191Y4002278D02*
G01*
X3557777Y3996944D01*
X3547363Y3986529D01*
X3542284Y3976370D01*
X3542284Y3955542D01*
X3547363Y3945128D01*
X3557777Y3934713D01*
X3568191Y3929379D01*
X3583940Y3924300D01*
X3609847Y3924300D01*
X3625341Y3929379D01*
X3635756Y3934713D01*
X3646170Y3945128D01*
X3651250Y3955542D01*
X3651250Y3976370D01*
X3646170Y3986529D01*
X3635756Y3996944D01*
X3625341Y4002278D01*
X3568191Y4041647D02*
G01*
X3563111Y4041647D01*
X3552697Y4046981D01*
X3547363Y4052062D01*
X3542284Y4062476D01*
X3542284Y4083304D01*
X3547363Y4093718D01*
X3552697Y4098797D01*
X3563111Y4104131D01*
X3573525Y4104131D01*
X3583940Y4098797D01*
X3599434Y4088384D01*
X3651250Y4036568D01*
X3651250Y4109212D01*
X5130291Y4192778D02*
G01*
X5119877Y4187444D01*
X5109463Y4177029D01*
X5104384Y4166870D01*
X5104384Y4146042D01*
X5109463Y4135628D01*
X5119877Y4125213D01*
X5130291Y4119879D01*
X5146040Y4114800D01*
X5171947Y4114800D01*
X5187441Y4119879D01*
X5197856Y4125213D01*
X5208270Y4135628D01*
X5213350Y4146042D01*
X5213350Y4166870D01*
X5208270Y4177029D01*
X5197856Y4187444D01*
X5187441Y4192778D01*
X5104384Y4237481D02*
G01*
X5104384Y4294631D01*
X5146040Y4263389D01*
X5146040Y4278884D01*
X5151120Y4289297D01*
X5156200Y4294631D01*
X5171947Y4299712D01*
X5182361Y4299712D01*
X5197856Y4294631D01*
X5208270Y4284218D01*
X5213350Y4268470D01*
X5213350Y4252976D01*
X5208270Y4237481D01*
X5203190Y4232147D01*
X5192775Y4227068D01*
X3339591Y4002278D02*
G01*
X3329177Y3996944D01*
X3318763Y3986529D01*
X3313684Y3976370D01*
X3313684Y3955542D01*
X3318763Y3945128D01*
X3329177Y3934713D01*
X3339591Y3929379D01*
X3355340Y3924300D01*
X3381247Y3924300D01*
X3396741Y3929379D01*
X3407156Y3934713D01*
X3417570Y3945128D01*
X3422650Y3955542D01*
X3422650Y3976370D01*
X3417570Y3986529D01*
X3407156Y3996944D01*
X3396741Y4002278D01*
X3313684Y4088384D02*
G01*
X3386327Y4036568D01*
X3386327Y4114545D01*
X3313684Y4088384D02*
G01*
X3422650Y4088384D01*
X3430777Y4661407D02*
G01*
X3425443Y4671821D01*
X3415029Y4682236D01*
X3404870Y4687315D01*
X3384041Y4687315D01*
X3373627Y4682236D01*
X3363213Y4671821D01*
X3357879Y4661407D01*
X3352800Y4645660D01*
X3352800Y4619752D01*
X3357879Y4604257D01*
X3363213Y4593844D01*
X3373627Y4583429D01*
X3384041Y4578350D01*
X3404870Y4578350D01*
X3415029Y4583429D01*
X3425443Y4593844D01*
X3430777Y4604257D01*
X3527297Y4687315D02*
G01*
X3475481Y4687315D01*
X3470147Y4640579D01*
X3475481Y4645660D01*
X3490975Y4650994D01*
X3506470Y4650994D01*
X3522218Y4645660D01*
X3532631Y4635500D01*
X3537711Y4619752D01*
X3537711Y4609337D01*
X3532631Y4593844D01*
X3522218Y4583429D01*
X3506470Y4578350D01*
X3490975Y4578350D01*
X3475481Y4583429D01*
X3470147Y4588510D01*
X3465068Y4598923D01*
X4825491Y3697470D02*
G01*
X4815077Y3692136D01*
X4804663Y3681722D01*
X4799584Y3671562D01*
X4799584Y3650734D01*
X4804663Y3640320D01*
X4815077Y3629906D01*
X4825491Y3624572D01*
X4841240Y3619492D01*
X4867147Y3619492D01*
X4882641Y3624572D01*
X4893056Y3629906D01*
X4903470Y3640320D01*
X4908550Y3650734D01*
X4908550Y3671562D01*
X4903470Y3681722D01*
X4893056Y3692136D01*
X4882641Y3697470D01*
X4815077Y3793990D02*
G01*
X4804663Y3788910D01*
X4799584Y3773162D01*
X4799584Y3763002D01*
X4804663Y3747254D01*
X4820411Y3736840D01*
X4846320Y3731760D01*
X4872227Y3731760D01*
X4893056Y3736840D01*
X4903470Y3747254D01*
X4908550Y3763002D01*
X4908550Y3768082D01*
X4903470Y3783576D01*
X4893056Y3793990D01*
X4877561Y3799324D01*
X4872227Y3799324D01*
X4856734Y3793990D01*
X4846320Y3783576D01*
X4841240Y3768082D01*
X4841240Y3763002D01*
X4846320Y3747254D01*
X4856734Y3736840D01*
X4872227Y3731760D01*
X5054091Y3697470D02*
G01*
X5043677Y3692136D01*
X5033263Y3681722D01*
X5028184Y3671562D01*
X5028184Y3650734D01*
X5033263Y3640320D01*
X5043677Y3629906D01*
X5054091Y3624572D01*
X5069840Y3619492D01*
X5095747Y3619492D01*
X5111241Y3624572D01*
X5121656Y3629906D01*
X5132070Y3640320D01*
X5137150Y3650734D01*
X5137150Y3671562D01*
X5132070Y3681722D01*
X5121656Y3692136D01*
X5111241Y3697470D01*
X5028184Y3804404D02*
G01*
X5137150Y3752588D01*
X5028184Y3731760D02*
G01*
X5028184Y3804404D01*
X5777991Y3811778D02*
G01*
X5767577Y3806444D01*
X5757163Y3796029D01*
X5752084Y3785870D01*
X5752084Y3765042D01*
X5757163Y3754628D01*
X5767577Y3744213D01*
X5777991Y3738879D01*
X5793740Y3733800D01*
X5819647Y3733800D01*
X5835141Y3738879D01*
X5845556Y3744213D01*
X5855970Y3754628D01*
X5861050Y3765042D01*
X5861050Y3785870D01*
X5855970Y3796029D01*
X5845556Y3806444D01*
X5835141Y3811778D01*
X5752084Y3871976D02*
G01*
X5757163Y3856481D01*
X5767577Y3851147D01*
X5777991Y3851147D01*
X5788406Y3856481D01*
X5793740Y3866895D01*
X5798820Y3887470D01*
X5803900Y3903218D01*
X5814313Y3913631D01*
X5824727Y3918712D01*
X5840475Y3918712D01*
X5850890Y3913631D01*
X5855970Y3908297D01*
X5861050Y3892804D01*
X5861050Y3871976D01*
X5855970Y3856481D01*
X5850890Y3851147D01*
X5840475Y3846068D01*
X5824727Y3846068D01*
X5814313Y3851147D01*
X5803900Y3861562D01*
X5798820Y3877310D01*
X5793740Y3897884D01*
X5788406Y3908297D01*
X5777991Y3913631D01*
X5767577Y3913631D01*
X5757163Y3908297D01*
X5752084Y3892804D01*
X5752084Y3871976D01*
X4802377Y2832607D02*
G01*
X4797043Y2843021D01*
X4786629Y2853436D01*
X4776470Y2858515D01*
X4755641Y2858515D01*
X4745227Y2853436D01*
X4734813Y2843021D01*
X4729479Y2832607D01*
X4724400Y2816860D01*
X4724400Y2790952D01*
X4729479Y2775457D01*
X4734813Y2765044D01*
X4745227Y2754629D01*
X4755641Y2749550D01*
X4776470Y2749550D01*
X4786629Y2754629D01*
X4797043Y2765044D01*
X4802377Y2775457D01*
X4904231Y2822194D02*
G01*
X4898897Y2806700D01*
X4888484Y2796286D01*
X4872990Y2790952D01*
X4867909Y2790952D01*
X4852161Y2796286D01*
X4841747Y2806700D01*
X4836668Y2822194D01*
X4836668Y2827273D01*
X4841747Y2843021D01*
X4852161Y2853436D01*
X4867909Y2858515D01*
X4872990Y2858515D01*
X4888484Y2853436D01*
X4898897Y2843021D01*
X4904231Y2822194D01*
X4904231Y2796286D01*
X4898897Y2770123D01*
X4888484Y2754629D01*
X4872990Y2749550D01*
X4862575Y2749550D01*
X4847081Y2754629D01*
X4841747Y2765044D01*
X4355591Y3202170D02*
G01*
X4345177Y3196836D01*
X4334763Y3186422D01*
X4329684Y3176262D01*
X4329684Y3155434D01*
X4334763Y3145020D01*
X4345177Y3134606D01*
X4355591Y3129272D01*
X4371340Y3124192D01*
X4397247Y3124192D01*
X4412741Y3129272D01*
X4423156Y3134606D01*
X4433570Y3145020D01*
X4438650Y3155434D01*
X4438650Y3176262D01*
X4433570Y3186422D01*
X4423156Y3196836D01*
X4412741Y3202170D01*
X4350511Y3236460D02*
G01*
X4345177Y3246874D01*
X4329684Y3262368D01*
X4438650Y3262368D01*
X4329684Y3327900D02*
G01*
X4334763Y3312152D01*
X4350511Y3301992D01*
X4376420Y3296658D01*
X4391913Y3296658D01*
X4418075Y3301992D01*
X4433570Y3312152D01*
X4438650Y3327900D01*
X4438650Y3338314D01*
X4433570Y3353808D01*
X4418075Y3364222D01*
X4391913Y3369302D01*
X4376420Y3369302D01*
X4350511Y3364222D01*
X4334763Y3353808D01*
X4329684Y3338314D01*
X4329684Y3327900D01*
X3720591Y2744970D02*
G01*
X3710177Y2739636D01*
X3699763Y2729222D01*
X3694684Y2719062D01*
X3694684Y2698234D01*
X3699763Y2687820D01*
X3710177Y2677406D01*
X3720591Y2672072D01*
X3736340Y2666992D01*
X3762247Y2666992D01*
X3777741Y2672072D01*
X3788156Y2677406D01*
X3798570Y2687820D01*
X3803650Y2698234D01*
X3803650Y2719062D01*
X3798570Y2729222D01*
X3788156Y2739636D01*
X3777741Y2744970D01*
X3715511Y2779260D02*
G01*
X3710177Y2789674D01*
X3694684Y2805168D01*
X3803650Y2805168D01*
X3715511Y2839458D02*
G01*
X3710177Y2849872D01*
X3694684Y2865366D01*
X3803650Y2865366D01*
X5411977Y5626607D02*
G01*
X5406643Y5637021D01*
X5396229Y5647436D01*
X5386070Y5652515D01*
X5365241Y5652515D01*
X5354827Y5647436D01*
X5344413Y5637021D01*
X5339079Y5626607D01*
X5334000Y5610860D01*
X5334000Y5584952D01*
X5339079Y5569457D01*
X5344413Y5559044D01*
X5354827Y5548629D01*
X5365241Y5543550D01*
X5386070Y5543550D01*
X5396229Y5548629D01*
X5406643Y5559044D01*
X5411977Y5569457D01*
X5446268Y5631687D02*
G01*
X5456681Y5637021D01*
X5472175Y5652515D01*
X5472175Y5543550D01*
X5511800Y5626607D02*
G01*
X5511800Y5631687D01*
X5516879Y5642102D01*
X5521959Y5647436D01*
X5532374Y5652515D01*
X5553202Y5652515D01*
X5563615Y5647436D01*
X5568950Y5642102D01*
X5574029Y5631687D01*
X5574029Y5621273D01*
X5568950Y5610860D01*
X5558536Y5595365D01*
X5506465Y5543550D01*
X5579109Y5543550D01*
X5663691Y4268970D02*
G01*
X5653277Y4263636D01*
X5642863Y4253222D01*
X5637784Y4243062D01*
X5637784Y4222234D01*
X5642863Y4211820D01*
X5653277Y4201406D01*
X5663691Y4196072D01*
X5679440Y4190992D01*
X5705347Y4190992D01*
X5720841Y4196072D01*
X5731256Y4201406D01*
X5741670Y4211820D01*
X5746750Y4222234D01*
X5746750Y4243062D01*
X5741670Y4253222D01*
X5731256Y4263636D01*
X5720841Y4268970D01*
X5658611Y4303260D02*
G01*
X5653277Y4313674D01*
X5637784Y4329168D01*
X5746750Y4329168D01*
X5637784Y4373872D02*
G01*
X5637784Y4431022D01*
X5679440Y4399780D01*
X5679440Y4415528D01*
X5684520Y4425942D01*
X5689600Y4431022D01*
X5705347Y4436102D01*
X5715761Y4436102D01*
X5731256Y4431022D01*
X5741670Y4420608D01*
X5746750Y4405114D01*
X5746750Y4389366D01*
X5741670Y4373872D01*
X5736590Y4368792D01*
X5726175Y4363458D01*
X6615684Y2997200D02*
G01*
X6724650Y2997200D01*
X6615684Y3069844D02*
G01*
X6724650Y3069844D01*
X6667500Y2997200D02*
G01*
X6667500Y3069844D01*
X6641591Y3109468D02*
G01*
X6636511Y3109468D01*
X6626097Y3114547D01*
X6620763Y3119881D01*
X6615684Y3130295D01*
X6615684Y3150870D01*
X6620763Y3161284D01*
X6626097Y3166618D01*
X6636511Y3171697D01*
X6646925Y3171697D01*
X6657340Y3166618D01*
X6672834Y3156204D01*
X6724650Y3104134D01*
X6724650Y3177031D01*
X2616200Y5347715D02*
G01*
X2616200Y5238750D01*
X2688843Y5347715D02*
G01*
X2688843Y5238750D01*
X2616200Y5295900D02*
G01*
X2688843Y5295900D01*
X2733547Y5347715D02*
G01*
X2790697Y5347715D01*
X2759709Y5306060D01*
X2775204Y5306060D01*
X2785618Y5300979D01*
X2790697Y5295900D01*
X2796031Y5280152D01*
X2796031Y5269737D01*
X2790697Y5254244D01*
X2780284Y5243829D01*
X2764790Y5238750D01*
X2749295Y5238750D01*
X2733547Y5243829D01*
X2728468Y5248910D01*
X2723134Y5259323D01*
X3633470Y5500115D02*
G01*
X3633470Y5417057D01*
X3628136Y5401310D01*
X3623056Y5396229D01*
X3612641Y5391150D01*
X3602227Y5391150D01*
X3591813Y5396229D01*
X3586479Y5401310D01*
X3581400Y5417057D01*
X3581400Y5427471D01*
X3667759Y5479287D02*
G01*
X3677920Y5484621D01*
X3693668Y5500115D01*
X3693668Y5391150D01*
X6286500Y4801615D02*
G01*
X6286500Y4692650D01*
X6286500Y4692650D02*
G01*
X6348729Y4692650D01*
X6383020Y4801615D02*
G01*
X6383020Y4692650D01*
X6383020Y4801615D02*
G01*
X6450584Y4801615D01*
X6383020Y4749800D02*
G01*
X6424675Y4749800D01*
X6383020Y4692650D02*
G01*
X6450584Y4692650D01*
X6484874Y4801615D02*
G01*
X6484874Y4692650D01*
X6484874Y4801615D02*
G01*
X6521450Y4801615D01*
X6536943Y4796536D01*
X6547358Y4786121D01*
X6552438Y4775707D01*
X6557772Y4759960D01*
X6557772Y4734052D01*
X6552438Y4718557D01*
X6547358Y4708144D01*
X6536943Y4697729D01*
X6521450Y4692650D01*
X6484874Y4692650D01*
X6592061Y4780787D02*
G01*
X6602475Y4786121D01*
X6617970Y4801615D01*
X6617970Y4692650D01*
X2971408Y3423030D02*
G01*
X2971408Y3314064D01*
X2971408Y3423030D02*
G01*
X3018144Y3423030D01*
X3033638Y3417951D01*
X3038972Y3412617D01*
X3044052Y3402203D01*
X3044052Y3391788D01*
X3038972Y3381375D01*
X3033638Y3376295D01*
X3018144Y3371214D01*
X2971408Y3371214D01*
X3007730Y3371214D02*
G01*
X3044052Y3314064D01*
X3078342Y3402203D02*
G01*
X3088756Y3407537D01*
X3104504Y3423030D01*
X3104504Y3314064D01*
X4254489Y5017515D02*
G01*
X4254489Y4908550D01*
X4254489Y5017515D02*
G01*
X4301225Y5017515D01*
X4316719Y5012436D01*
X4322053Y5007102D01*
X4327133Y4996687D01*
X4327133Y4986273D01*
X4322053Y4975860D01*
X4316719Y4970779D01*
X4301225Y4965700D01*
X4254489Y4965700D01*
X4290811Y4965700D02*
G01*
X4327133Y4908550D01*
X4366757Y4991607D02*
G01*
X4366757Y4996687D01*
X4371837Y5007102D01*
X4377171Y5012436D01*
X4387585Y5017515D01*
X4408159Y5017515D01*
X4418573Y5012436D01*
X4423907Y5007102D01*
X4428987Y4996687D01*
X4428987Y4986273D01*
X4423907Y4975860D01*
X4413493Y4960365D01*
X4361423Y4908550D01*
X4434321Y4908550D01*
X6324600Y5195315D02*
G01*
X6324600Y5086350D01*
X6324600Y5195315D02*
G01*
X6371336Y5195315D01*
X6386829Y5190236D01*
X6392163Y5184902D01*
X6397243Y5174487D01*
X6397243Y5164073D01*
X6392163Y5153660D01*
X6386829Y5148579D01*
X6371336Y5143500D01*
X6324600Y5143500D01*
X6360922Y5143500D02*
G01*
X6397243Y5086350D01*
X6441947Y5195315D02*
G01*
X6499097Y5195315D01*
X6468109Y5153660D01*
X6483604Y5153660D01*
X6494018Y5148579D01*
X6499097Y5143500D01*
X6504431Y5127752D01*
X6504431Y5117337D01*
X6499097Y5101844D01*
X6488684Y5091429D01*
X6473190Y5086350D01*
X6457695Y5086350D01*
X6441947Y5091429D01*
X6436868Y5096510D01*
X6431534Y5106923D01*
X5905489Y4344415D02*
G01*
X5905489Y4235450D01*
X5905489Y4344415D02*
G01*
X5952225Y4344415D01*
X5967719Y4339336D01*
X5973053Y4334002D01*
X5978133Y4323587D01*
X5978133Y4313173D01*
X5973053Y4302760D01*
X5967719Y4297679D01*
X5952225Y4292600D01*
X5905489Y4292600D01*
X5941811Y4292600D02*
G01*
X5978133Y4235450D01*
X6064493Y4344415D02*
G01*
X6012423Y4271771D01*
X6090401Y4271771D01*
X6064493Y4344415D02*
G01*
X6064493Y4235450D01*
X6171184Y3238500D02*
G01*
X6280150Y3238500D01*
X6171184Y3238500D02*
G01*
X6171184Y3285236D01*
X6176263Y3300729D01*
X6181597Y3306063D01*
X6192011Y3311144D01*
X6202425Y3311144D01*
X6212840Y3306063D01*
X6217920Y3300729D01*
X6223000Y3285236D01*
X6223000Y3238500D01*
X6223000Y3274821D02*
G01*
X6280150Y3311144D01*
X6171184Y3407918D02*
G01*
X6171184Y3355847D01*
X6217920Y3350768D01*
X6212840Y3355847D01*
X6207506Y3371595D01*
X6207506Y3387089D01*
X6212840Y3402584D01*
X6223000Y3412997D01*
X6238747Y3418331D01*
X6249161Y3418331D01*
X6264656Y3412997D01*
X6275070Y3402584D01*
X6280150Y3387089D01*
X6280150Y3371595D01*
X6275070Y3355847D01*
X6269990Y3350768D01*
X6259575Y3345434D01*
X4837684Y4777897D02*
G01*
X4915661Y4777897D01*
X4931156Y4782977D01*
X4941570Y4793391D01*
X4946650Y4809139D01*
X4946650Y4819553D01*
X4941570Y4835047D01*
X4931156Y4845461D01*
X4915661Y4850541D01*
X4837684Y4850541D01*
X4858511Y4884831D02*
G01*
X4853177Y4895245D01*
X4837684Y4910993D01*
X4946650Y4910993D01*
X4432300Y4636515D02*
G01*
X4432300Y4558537D01*
X4437379Y4543044D01*
X4447793Y4532629D01*
X4463541Y4527550D01*
X4473956Y4527550D01*
X4489450Y4532629D01*
X4499863Y4543044D01*
X4504943Y4558537D01*
X4504943Y4636515D01*
X4544568Y4610607D02*
G01*
X4544568Y4615687D01*
X4549647Y4626102D01*
X4554981Y4631436D01*
X4565395Y4636515D01*
X4585970Y4636515D01*
X4596384Y4631436D01*
X4601718Y4626102D01*
X4606797Y4615687D01*
X4606797Y4605273D01*
X4601718Y4594860D01*
X4591304Y4579365D01*
X4539234Y4527550D01*
X4612131Y4527550D01*
X4648200Y5677915D02*
G01*
X4648200Y5599937D01*
X4653279Y5584444D01*
X4663693Y5574029D01*
X4679441Y5568950D01*
X4689856Y5568950D01*
X4705350Y5574029D01*
X4715763Y5584444D01*
X4720843Y5599937D01*
X4720843Y5677915D01*
X4828031Y5662421D02*
G01*
X4817618Y5672836D01*
X4801870Y5677915D01*
X4781295Y5677915D01*
X4765547Y5672836D01*
X4755134Y5662421D01*
X4755134Y5652007D01*
X4760468Y5641594D01*
X4765547Y5636260D01*
X4775961Y5631179D01*
X4807204Y5620765D01*
X4817618Y5615686D01*
X4822697Y5610352D01*
X4828031Y5599937D01*
X4828031Y5584444D01*
X4817618Y5574029D01*
X4801870Y5568950D01*
X4781295Y5568950D01*
X4765547Y5574029D01*
X4755134Y5584444D01*
X4862322Y5677915D02*
G01*
X4862322Y5568950D01*
X4862322Y5677915D02*
G01*
X4909058Y5677915D01*
X4924552Y5672836D01*
X4929886Y5667502D01*
X4934965Y5657087D01*
X4934965Y5646673D01*
X4929886Y5636260D01*
X4924552Y5631179D01*
X4909058Y5626100D01*
X4862322Y5626100D02*
G01*
X4909058Y5626100D01*
X4924552Y5620765D01*
X4929886Y5615686D01*
X4934965Y5605271D01*
X4934965Y5589523D01*
X4929886Y5579110D01*
X4924552Y5574029D01*
X4909058Y5568950D01*
X4862322Y5568950D01*
X4969256Y5657087D02*
G01*
X4979670Y5662421D01*
X4995163Y5677915D01*
X4995163Y5568950D01*
X4381492Y2858515D02*
G01*
X4454136Y2749550D01*
X4454136Y2858515D02*
G01*
X4381492Y2749550D01*
X4488426Y2837687D02*
G01*
X4498840Y2843021D01*
X4514588Y2858515D01*
X4514588Y2749550D01*
X2382621Y3071484D02*
G01*
X2372207Y3061070D01*
X2367127Y3045322D01*
X2367127Y3024494D01*
X2372207Y3009000D01*
X2382621Y2998586D01*
X2393035Y2998586D01*
X2403449Y3003920D01*
X2408783Y3009000D01*
X2413863Y3019414D01*
X2424277Y3050656D01*
X2429357Y3061070D01*
X2434691Y3066150D01*
X2445105Y3071484D01*
X2460599Y3071484D01*
X2471013Y3061070D01*
X2476093Y3045322D01*
X2476093Y3024494D01*
X2471013Y3009000D01*
X2460599Y2998586D01*
X2367127Y3105774D02*
G01*
X2476093Y3131682D01*
X2367127Y3157590D02*
G01*
X2476093Y3131682D01*
X2367127Y3157590D02*
G01*
X2476093Y3183498D01*
X2367127Y3209660D02*
G01*
X2476093Y3183498D01*
X2387955Y3243950D02*
G01*
X2382621Y3254364D01*
X2367127Y3269858D01*
X2476093Y3269858D01*
G36*
X6314592Y4535779D02*
G01*
X6314592Y4455820D01*
X6344615Y4495800D01*
G37*
D11*
X5359389Y3314692D02*
G01*
X5359389Y3129881D01*
X5613389Y3129881D01*
X5613389Y3314692D01*
X5613389Y3467092D02*
G01*
X5613389Y3652893D01*
X5359389Y3652893D01*
X5359389Y3467092D01*
D10*
X3362180Y4862639D02*
G01*
X3503180Y4862639D01*
X3503180Y5043360D02*
G01*
X3362180Y5043360D01*
X3346940Y5028120D02*
G01*
X3346940Y4877879D01*
X3724419Y4862639D02*
G01*
X3583419Y4862639D01*
X3583419Y5043360D02*
G01*
X3724419Y5043360D01*
X3739659Y5028120D02*
G01*
X3739659Y4877879D01*
X3491039Y3838719D02*
G01*
X3491039Y3697719D01*
X3671760Y3697719D02*
G01*
X3671760Y3838719D01*
X3656520Y3853959D02*
G01*
X3506279Y3853959D01*
X3491039Y3476480D02*
G01*
X3491039Y3617480D01*
X3671760Y3617480D02*
G01*
X3671760Y3476480D01*
X3656520Y3461240D02*
G01*
X3506279Y3461240D01*
X5043360Y4200380D02*
G01*
X5043360Y4341380D01*
X4862639Y4341380D02*
G01*
X4862639Y4200380D01*
X4877879Y4185140D02*
G01*
X5028120Y4185140D01*
X5043360Y4562619D02*
G01*
X5043360Y4421619D01*
X4862639Y4421619D02*
G01*
X4862639Y4562619D01*
X4877879Y4577859D02*
G01*
X5028120Y4577859D01*
X3186239Y3838719D02*
G01*
X3186239Y3697719D01*
X3366960Y3697719D02*
G01*
X3366960Y3838719D01*
X3351720Y3853959D02*
G01*
X3201479Y3853959D01*
X3186239Y3476480D02*
G01*
X3186239Y3617480D01*
X3366960Y3617480D02*
G01*
X3366960Y3476480D01*
X3351720Y3461240D02*
G01*
X3201479Y3461240D01*
X3991119Y4738560D02*
G01*
X3850119Y4738560D01*
X3850119Y4557839D02*
G01*
X3991119Y4557839D01*
X4006359Y4573079D02*
G01*
X4006359Y4723320D01*
X3628880Y4738560D02*
G01*
X3769880Y4738560D01*
X3769880Y4557839D02*
G01*
X3628880Y4557839D01*
X3613640Y4573079D02*
G01*
X3613640Y4723320D01*
X4852860Y3184380D02*
G01*
X4852860Y3325380D01*
X4672139Y3325380D02*
G01*
X4672139Y3184380D01*
X4687379Y3169140D02*
G01*
X4837620Y3169140D01*
X4852860Y3546619D02*
G01*
X4852860Y3405619D01*
X4672139Y3405619D02*
G01*
X4672139Y3546619D01*
X4687379Y3561859D02*
G01*
X4837620Y3561859D01*
X5170360Y3184380D02*
G01*
X5170360Y3325380D01*
X4989639Y3325380D02*
G01*
X4989639Y3184380D01*
X5004879Y3169140D02*
G01*
X5155120Y3169140D01*
X5170360Y3546619D02*
G01*
X5170360Y3405619D01*
X4989639Y3405619D02*
G01*
X4989639Y3546619D01*
X5004879Y3561859D02*
G01*
X5155120Y3561859D01*
X5919660Y3285980D02*
G01*
X5919660Y3426980D01*
X5738939Y3426980D02*
G01*
X5738939Y3285980D01*
X5754179Y3270740D02*
G01*
X5904420Y3270740D01*
X5919660Y3648219D02*
G01*
X5919660Y3507219D01*
X5738939Y3507219D02*
G01*
X5738939Y3648219D01*
X5754179Y3663459D02*
G01*
X5904420Y3663459D01*
X5007119Y3074860D02*
G01*
X4866119Y3074860D01*
X4866119Y2894139D02*
G01*
X5007119Y2894139D01*
X5022359Y2909379D02*
G01*
X5022359Y3059620D01*
X4644880Y3074860D02*
G01*
X4785880Y3074860D01*
X4785880Y2894139D02*
G01*
X4644880Y2894139D01*
X4629640Y2909379D02*
G01*
X4629640Y3059620D01*
X3882880Y3160839D02*
G01*
X4023880Y3160839D01*
X4023880Y3341560D02*
G01*
X3882880Y3341560D01*
X3867640Y3326320D02*
G01*
X3867640Y3176079D01*
X4245119Y3160839D02*
G01*
X4104119Y3160839D01*
X4104119Y3341560D02*
G01*
X4245119Y3341560D01*
X4260359Y3326320D02*
G01*
X4260359Y3176079D01*
X3747960Y2981180D02*
G01*
X3747960Y3122180D01*
X3567239Y3122180D02*
G01*
X3567239Y2981180D01*
X3582479Y2965940D02*
G01*
X3732720Y2965940D01*
X3747960Y3343419D02*
G01*
X3747960Y3202419D01*
X3567239Y3202419D02*
G01*
X3567239Y3343419D01*
X3582479Y3358659D02*
G01*
X3732720Y3358659D01*
X5515119Y5500560D02*
G01*
X5374119Y5500560D01*
X5374119Y5319839D02*
G01*
X5515119Y5319839D01*
X5530359Y5335079D02*
G01*
X5530359Y5485320D01*
X5152880Y5500560D02*
G01*
X5293880Y5500560D01*
X5293880Y5319839D02*
G01*
X5152880Y5319839D01*
X5137640Y5335079D02*
G01*
X5137640Y5485320D01*
X5777039Y4791219D02*
G01*
X5777039Y4650219D01*
X5957760Y4650219D02*
G01*
X5957760Y4791219D01*
X5942520Y4806459D02*
G01*
X5792279Y4806459D01*
X5777039Y4428980D02*
G01*
X5777039Y4569980D01*
X5957760Y4569980D02*
G01*
X5957760Y4428980D01*
X5942520Y4413740D02*
G01*
X5792279Y4413740D01*
D12*
X6540500Y4254500D02*
G01*
X6794500Y4254500D01*
X6794500Y3238500D01*
X6540500Y3238500D01*
X6540500Y3429000D01*
D13*
X6540500Y4254500D02*
G01*
X6540500Y3429000D01*
D12*
X2311400Y5384800D02*
G01*
X2565400Y5384800D01*
X2565400Y3352800D01*
X2311400Y3352800D01*
X2311400Y3543300D01*
D13*
X2311400Y5384800D02*
G01*
X2311400Y3543300D01*
D12*
X2692400Y5562600D02*
G01*
X2692400Y5816600D01*
X3708400Y5816600D01*
X3708400Y5562600D01*
X3517900Y5562600D01*
D13*
X2692400Y5562600D02*
G01*
X3517900Y5562600D01*
D14*
X6364599Y4595799D02*
G01*
X6524599Y4595799D01*
X6524599Y4395800D01*
X6364599Y4395800D01*
X6284600Y4395800D02*
G01*
X6124600Y4395800D01*
X6124600Y4595799D01*
X6284600Y4595799D01*
X6524599Y4595799D02*
G01*
X6524599Y4595799D01*
X6554599Y4565799D01*
X6554599Y4425800D01*
X6554599Y4425800D01*
X6524599Y4395800D01*
D10*
X2930890Y3609980D02*
G01*
X2930890Y3481486D01*
X3114309Y3481486D01*
X3114309Y3609980D01*
X2930890Y3705219D02*
G01*
X2930890Y3833713D01*
X3114309Y3833713D01*
X3114309Y3705219D01*
X4035419Y4886690D02*
G01*
X4163913Y4886690D01*
X4163913Y5070109D01*
X4035419Y5070109D01*
X3940180Y4886690D02*
G01*
X3811686Y4886690D01*
X3811686Y5070109D01*
X3940180Y5070109D01*
X6372219Y4861290D02*
G01*
X6500713Y4861290D01*
X6500713Y5044709D01*
X6372219Y5044709D01*
X6276980Y4861290D02*
G01*
X6148486Y4861290D01*
X6148486Y5044709D01*
X6276980Y5044709D01*
X6302009Y4162419D02*
G01*
X6302009Y4290913D01*
X6118590Y4290913D01*
X6118590Y4162419D01*
X6302009Y4067180D02*
G01*
X6302009Y3938686D01*
X6118590Y3938686D01*
X6118590Y4067180D01*
X6118590Y3609980D02*
G01*
X6118590Y3481486D01*
X6302009Y3481486D01*
X6302009Y3609980D01*
X6118590Y3705219D02*
G01*
X6118590Y3833713D01*
X6302009Y3833713D01*
X6302009Y3705219D01*
X5666620Y4605357D02*
G01*
X5001379Y4605357D01*
X5001379Y4899637D01*
X5666620Y4899637D01*
X5666620Y4605357D01*
D14*
X3977640Y4296410D02*
G01*
X4597400Y4296410D01*
X4597400Y3630929D01*
X3934459Y3630929D01*
X3934459Y4296410D01*
X4010659Y4296410D01*
D11*
X4569000Y5779551D02*
G01*
X3811000Y5779551D01*
X3811000Y5426443D02*
G01*
X3811000Y5424749D01*
X4569000Y5688540D02*
G01*
X4569000Y5779551D01*
X4602998Y5813549D01*
X3790000Y5813549D01*
X3772999Y5813549D01*
X3811000Y5775548D01*
X3811000Y5688058D01*
X3855389Y5254551D02*
G01*
X3811000Y5254551D01*
X3811000Y5424749D01*
X4569000Y5254551D02*
G01*
X4569000Y5426041D01*
X4569000Y5254551D02*
G01*
X4514578Y5254551D01*
D10*
X3873840Y2765851D02*
G01*
X3873840Y3101573D01*
X4279559Y3101573D01*
X4279559Y2765851D01*
X3873840Y2765851D01*
X3850980Y2908711D02*
G01*
X3850980Y2742991D01*
X4036700Y2742991D01*
D11*
X2592638Y3242589D02*
G01*
X3452632Y3242589D01*
X2592638Y2802610D02*
G01*
X3452632Y2802610D01*
X3452632Y3242589D02*
G01*
X3452632Y3132904D01*
X3452632Y2912295D02*
G01*
X3452632Y2802610D01*
X2592638Y3242589D02*
G01*
X2592638Y3132904D01*
X2592638Y2912295D02*
G01*
X2592638Y2802610D01*
D10*
G75*
G01*
X3362180Y5043360D02*
G03*
X3346940Y5028120I0J-15240D01*
G75*
G01*
X3346940Y4877880D02*
G03*
X3362180Y4862640I15240J0D01*
G75*
G01*
X3724420Y5043360D02*
G02*
X3739660Y5028120I0J-15240D01*
G75*
G01*
X3739660Y4877880D02*
G02*
X3724420Y4862640I-15240J0D01*
G75*
G01*
X3671760Y3838720D02*
G03*
X3656521Y3853960I-15240J0D01*
G75*
G01*
X3506279Y3853960D02*
G03*
X3491040Y3838720I1J-15240D01*
G75*
G01*
X3671760Y3476480D02*
G02*
X3656521Y3461240I-15240J0D01*
G75*
G01*
X3506279Y3461240D02*
G02*
X3491040Y3476480I1J15240D01*
G75*
G01*
X4862640Y4200380D02*
G03*
X4877879Y4185140I15240J0D01*
G75*
G01*
X5028121Y4185140D02*
G03*
X5043360Y4200380I-1J15240D01*
G75*
G01*
X4862640Y4562620D02*
G02*
X4877879Y4577860I15240J0D01*
G75*
G01*
X5028121Y4577860D02*
G02*
X5043360Y4562620I-1J-15240D01*
G75*
G01*
X3366960Y3838720D02*
G03*
X3351721Y3853960I-15240J0D01*
G75*
G01*
X3201479Y3853960D02*
G03*
X3186240Y3838720I1J-15240D01*
G75*
G01*
X3366960Y3476480D02*
G02*
X3351721Y3461240I-15240J0D01*
G75*
G01*
X3201479Y3461240D02*
G02*
X3186240Y3476480I1J15240D01*
G75*
G01*
X3991120Y4557840D02*
G03*
X4006360Y4573080I0J15240D01*
G75*
G01*
X4006360Y4723320D02*
G03*
X3991120Y4738560I-15240J0D01*
G75*
G01*
X3628880Y4557840D02*
G02*
X3613640Y4573080I0J15240D01*
G75*
G01*
X3613640Y4723320D02*
G02*
X3628880Y4738560I15240J0D01*
G75*
G01*
X4672140Y3184380D02*
G03*
X4687379Y3169140I15240J0D01*
G75*
G01*
X4837621Y3169140D02*
G03*
X4852860Y3184380I-1J15240D01*
G75*
G01*
X4672140Y3546620D02*
G02*
X4687379Y3561860I15240J0D01*
G75*
G01*
X4837621Y3561860D02*
G02*
X4852860Y3546620I-1J-15240D01*
G75*
G01*
X4989640Y3184380D02*
G03*
X5004879Y3169140I15240J0D01*
G75*
G01*
X5155121Y3169140D02*
G03*
X5170360Y3184380I-1J15240D01*
G75*
G01*
X4989640Y3546620D02*
G02*
X5004879Y3561860I15240J0D01*
G75*
G01*
X5155121Y3561860D02*
G02*
X5170360Y3546620I-1J-15240D01*
G75*
G01*
X5738940Y3285980D02*
G03*
X5754179Y3270740I15240J0D01*
G75*
G01*
X5904421Y3270740D02*
G03*
X5919660Y3285980I-1J15240D01*
G75*
G01*
X5738940Y3648220D02*
G02*
X5754179Y3663460I15240J0D01*
G75*
G01*
X5904421Y3663460D02*
G02*
X5919660Y3648220I-1J-15240D01*
G75*
G01*
X5007120Y2894140D02*
G03*
X5022360Y2909380I0J15240D01*
G75*
G01*
X5022360Y3059620D02*
G03*
X5007120Y3074860I-15240J0D01*
G75*
G01*
X4644880Y2894140D02*
G02*
X4629640Y2909380I0J15240D01*
G75*
G01*
X4629640Y3059620D02*
G02*
X4644880Y3074860I15240J0D01*
G75*
G01*
X3882880Y3341560D02*
G03*
X3867640Y3326320I0J-15240D01*
G75*
G01*
X3867640Y3176080D02*
G03*
X3882880Y3160840I15240J0D01*
G75*
G01*
X4245120Y3341560D02*
G02*
X4260360Y3326320I0J-15240D01*
G75*
G01*
X4260360Y3176080D02*
G02*
X4245120Y3160840I-15240J0D01*
G75*
G01*
X3567240Y2981180D02*
G03*
X3582479Y2965940I15240J0D01*
G75*
G01*
X3732721Y2965940D02*
G03*
X3747960Y2981180I-1J15240D01*
G75*
G01*
X3567240Y3343420D02*
G02*
X3582479Y3358660I15240J0D01*
G75*
G01*
X3732721Y3358660D02*
G02*
X3747960Y3343420I-1J-15240D01*
G75*
G01*
X5515120Y5319840D02*
G03*
X5530360Y5335080I0J15240D01*
G75*
G01*
X5530360Y5485320D02*
G03*
X5515120Y5500560I-15240J0D01*
G75*
G01*
X5152880Y5319840D02*
G02*
X5137640Y5335080I0J15240D01*
G75*
G01*
X5137640Y5485320D02*
G02*
X5152880Y5500560I15240J0D01*
G75*
G01*
X5957760Y4791220D02*
G03*
X5942521Y4806460I-15240J0D01*
G75*
G01*
X5792279Y4806460D02*
G03*
X5777040Y4791220I1J-15240D01*
G75*
G01*
X5957760Y4428980D02*
G02*
X5942521Y4413740I-15240J0D01*
G75*
G01*
X5792279Y4413740D02*
G02*
X5777040Y4428980I1J15240D01*
D15*
G75*
G01*
X3928201Y3556401D02*
G03*
X3928455Y3556401I127J-19999D01*
D11*
G75*
G01
X4022242Y3679393D02*
G03X4022242Y3679393I-17043J0D01*
M02*
