G04 Layer: BottomSilkscreenLayer*
G04 EasyEDA v6.5.39, 2024-01-11 12:10:10*
G04 6726c83836ac4f208e7d9a6969430780,b65fc79a3ba447d2aedd2257ff82dca6,10*
G04 Gerber Generator version 0.2*
G04 Scale: 100 percent, Rotated: No, Reflected: No *
G04 Dimensions in millimeters *
G04 leading zeros omitted , absolute positions ,4 integer and 5 decimal *
%FSLAX45Y45*%
%MOMM*%

%ADD10C,0.1524*%

%LPD*%
D10*
X2921000Y5042938D02*
G01*
X2921000Y4933835D01*
X2921000Y5042938D02*
G01*
X2874241Y5042938D01*
X2858655Y5037744D01*
X2853458Y5032547D01*
X2848264Y5022156D01*
X2848264Y5006571D01*
X2853458Y4996179D01*
X2858655Y4990985D01*
X2874241Y4985788D01*
X2921000Y4985788D01*
X2772409Y5042938D02*
G01*
X2813974Y4933835D01*
X2772409Y5042938D02*
G01*
X2730845Y4933835D01*
X2798386Y4970203D02*
G01*
X2746433Y4970203D01*
X2623820Y5042938D02*
G01*
X2675775Y4933835D01*
X2696555Y5042938D02*
G01*
X2623820Y5042938D01*
X2895600Y4280938D02*
G01*
X2895600Y4171835D01*
X2895600Y4280938D02*
G01*
X2848841Y4280938D01*
X2833255Y4275744D01*
X2828058Y4270547D01*
X2822864Y4260156D01*
X2822864Y4244571D01*
X2828058Y4234179D01*
X2833255Y4228985D01*
X2848841Y4223788D01*
X2895600Y4223788D01*
X2788574Y4280938D02*
G01*
X2788574Y4171835D01*
X2788574Y4280938D02*
G01*
X2741815Y4280938D01*
X2726227Y4275744D01*
X2721033Y4270547D01*
X2715836Y4260156D01*
X2715836Y4249765D01*
X2721033Y4239374D01*
X2726227Y4234179D01*
X2741815Y4228985D01*
X2788574Y4228985D02*
G01*
X2741815Y4228985D01*
X2726227Y4223788D01*
X2721033Y4218594D01*
X2715836Y4208203D01*
X2715836Y4192615D01*
X2721033Y4182224D01*
X2726227Y4177029D01*
X2741815Y4171835D01*
X2788574Y4171835D01*
X2629593Y4280938D02*
G01*
X2681546Y4208203D01*
X2603614Y4208203D01*
X2629593Y4280938D02*
G01*
X2629593Y4171835D01*
X2895600Y4026938D02*
G01*
X2895600Y3917835D01*
X2895600Y4026938D02*
G01*
X2848841Y4026938D01*
X2833255Y4021744D01*
X2828058Y4016547D01*
X2822864Y4006156D01*
X2822864Y3990571D01*
X2828058Y3980179D01*
X2833255Y3974985D01*
X2848841Y3969788D01*
X2895600Y3969788D01*
X2788574Y4026938D02*
G01*
X2788574Y3917835D01*
X2788574Y4026938D02*
G01*
X2741815Y4026938D01*
X2726227Y4021744D01*
X2721033Y4016547D01*
X2715836Y4006156D01*
X2715836Y3995765D01*
X2721033Y3985374D01*
X2726227Y3980179D01*
X2741815Y3974985D01*
X2788574Y3974985D02*
G01*
X2741815Y3974985D01*
X2726227Y3969788D01*
X2721033Y3964594D01*
X2715836Y3954203D01*
X2715836Y3938615D01*
X2721033Y3928224D01*
X2726227Y3923029D01*
X2741815Y3917835D01*
X2788574Y3917835D01*
X2619202Y4026938D02*
G01*
X2671155Y4026938D01*
X2676352Y3980179D01*
X2671155Y3985374D01*
X2655570Y3990571D01*
X2639984Y3990571D01*
X2624396Y3985374D01*
X2614005Y3974985D01*
X2608811Y3959397D01*
X2608811Y3949006D01*
X2614005Y3933421D01*
X2624396Y3923029D01*
X2639984Y3917835D01*
X2655570Y3917835D01*
X2671155Y3923029D01*
X2676352Y3928224D01*
X2681546Y3938615D01*
X2895600Y3798338D02*
G01*
X2895600Y3689235D01*
X2895600Y3798338D02*
G01*
X2848841Y3798338D01*
X2833255Y3793144D01*
X2828058Y3787947D01*
X2822864Y3777556D01*
X2822864Y3761971D01*
X2828058Y3751579D01*
X2833255Y3746385D01*
X2848841Y3741188D01*
X2895600Y3741188D01*
X2788574Y3798338D02*
G01*
X2788574Y3689235D01*
X2788574Y3798338D02*
G01*
X2741815Y3798338D01*
X2726227Y3793144D01*
X2721033Y3787947D01*
X2715836Y3777556D01*
X2715836Y3767165D01*
X2721033Y3756774D01*
X2726227Y3751579D01*
X2741815Y3746385D01*
X2788574Y3746385D02*
G01*
X2741815Y3746385D01*
X2726227Y3741188D01*
X2721033Y3735994D01*
X2715836Y3725603D01*
X2715836Y3710015D01*
X2721033Y3699624D01*
X2726227Y3694429D01*
X2741815Y3689235D01*
X2788574Y3689235D01*
X2671155Y3798338D02*
G01*
X2614005Y3798338D01*
X2645178Y3756774D01*
X2629593Y3756774D01*
X2619202Y3751579D01*
X2614005Y3746385D01*
X2608811Y3730797D01*
X2608811Y3720406D01*
X2614005Y3704821D01*
X2624396Y3694429D01*
X2639984Y3689235D01*
X2655570Y3689235D01*
X2671155Y3694429D01*
X2676352Y3699624D01*
X2681546Y3710015D01*
X3096953Y5076535D02*
G01*
X3107344Y5066144D01*
X3112538Y5050558D01*
X3112538Y5029776D01*
X3107344Y5014191D01*
X3096953Y5003800D01*
X3086562Y5003800D01*
X3076171Y5008994D01*
X3070974Y5014191D01*
X3065779Y5024582D01*
X3055388Y5055755D01*
X3050194Y5066144D01*
X3044997Y5071341D01*
X3034606Y5076535D01*
X3019021Y5076535D01*
X3008629Y5066144D01*
X3003435Y5050558D01*
X3003435Y5029776D01*
X3008629Y5014191D01*
X3019021Y5003800D01*
X3112538Y5110825D02*
G01*
X3003435Y5136804D01*
X3112538Y5162781D02*
G01*
X3003435Y5136804D01*
X3112538Y5162781D02*
G01*
X3003435Y5188757D01*
X3112538Y5214734D02*
G01*
X3003435Y5188757D01*
X3086562Y5326956D02*
G01*
X3096953Y5321762D01*
X3107344Y5311371D01*
X3112538Y5300979D01*
X3112538Y5280197D01*
X3107344Y5269806D01*
X3096953Y5259415D01*
X3086562Y5254221D01*
X3070974Y5249024D01*
X3044997Y5249024D01*
X3029412Y5254221D01*
X3019021Y5259415D01*
X3008629Y5269806D01*
X3003435Y5280197D01*
X3003435Y5300979D01*
X3008629Y5311371D01*
X3019021Y5321762D01*
X3029412Y5326956D01*
X3112538Y5361246D02*
G01*
X3003435Y5361246D01*
X3003435Y5361246D02*
G01*
X3003435Y5423593D01*
X3112538Y5457883D02*
G01*
X3003435Y5457883D01*
X3112538Y5530618D02*
G01*
X3039803Y5457883D01*
X3065779Y5483860D02*
G01*
X3003435Y5530618D01*
X3376353Y5101935D02*
G01*
X3386744Y5091544D01*
X3391938Y5075958D01*
X3391938Y5055176D01*
X3386744Y5039591D01*
X3376353Y5029200D01*
X3365962Y5029200D01*
X3355571Y5034394D01*
X3350374Y5039591D01*
X3345179Y5049982D01*
X3334788Y5081155D01*
X3329594Y5091544D01*
X3324397Y5096741D01*
X3314006Y5101935D01*
X3298421Y5101935D01*
X3288029Y5091544D01*
X3282835Y5075958D01*
X3282835Y5055176D01*
X3288029Y5039591D01*
X3298421Y5029200D01*
X3391938Y5136225D02*
G01*
X3282835Y5162204D01*
X3391938Y5188181D02*
G01*
X3282835Y5162204D01*
X3391938Y5188181D02*
G01*
X3282835Y5214157D01*
X3391938Y5240134D02*
G01*
X3282835Y5214157D01*
X3391938Y5274424D02*
G01*
X3282835Y5274424D01*
X3391938Y5274424D02*
G01*
X3391938Y5310794D01*
X3386744Y5326379D01*
X3376353Y5336771D01*
X3365962Y5341965D01*
X3350374Y5347162D01*
X3324397Y5347162D01*
X3308812Y5341965D01*
X3298421Y5336771D01*
X3288029Y5326379D01*
X3282835Y5310794D01*
X3282835Y5274424D01*
X3391938Y5381452D02*
G01*
X3282835Y5381452D01*
X3391938Y5446915D02*
G01*
X3386744Y5436524D01*
X3376353Y5426133D01*
X3365962Y5420936D01*
X3350374Y5415742D01*
X3324397Y5415742D01*
X3308812Y5420936D01*
X3298421Y5426133D01*
X3288029Y5436524D01*
X3282835Y5446915D01*
X3282835Y5467695D01*
X3288029Y5478086D01*
X3298421Y5488477D01*
X3308812Y5493674D01*
X3324397Y5498868D01*
X3350374Y5498868D01*
X3365962Y5493674D01*
X3376353Y5488477D01*
X3386744Y5478086D01*
X3391938Y5467695D01*
X3391938Y5446915D01*
X6502400Y4179338D02*
G01*
X6502400Y4070235D01*
X6502400Y4179338D02*
G01*
X6455641Y4179338D01*
X6440055Y4174144D01*
X6434858Y4168947D01*
X6429664Y4158556D01*
X6429664Y4142971D01*
X6434858Y4132579D01*
X6440055Y4127385D01*
X6455641Y4122188D01*
X6502400Y4122188D01*
X6395374Y4179338D02*
G01*
X6395374Y4070235D01*
X6395374Y4179338D02*
G01*
X6348615Y4179338D01*
X6333027Y4174144D01*
X6327833Y4168947D01*
X6322636Y4158556D01*
X6322636Y4148165D01*
X6327833Y4137774D01*
X6333027Y4132579D01*
X6348615Y4127385D01*
X6395374Y4127385D02*
G01*
X6348615Y4127385D01*
X6333027Y4122188D01*
X6327833Y4116994D01*
X6322636Y4106603D01*
X6322636Y4091015D01*
X6327833Y4080624D01*
X6333027Y4075429D01*
X6348615Y4070235D01*
X6395374Y4070235D01*
X6288346Y4158556D02*
G01*
X6277955Y4163753D01*
X6262370Y4179338D01*
X6262370Y4070235D01*
X6228079Y4158556D02*
G01*
X6217688Y4163753D01*
X6202103Y4179338D01*
X6202103Y4070235D01*
X6502400Y3925338D02*
G01*
X6502400Y3816235D01*
X6502400Y3925338D02*
G01*
X6455641Y3925338D01*
X6440055Y3920144D01*
X6434858Y3914947D01*
X6429664Y3904556D01*
X6429664Y3888971D01*
X6434858Y3878579D01*
X6440055Y3873385D01*
X6455641Y3868188D01*
X6502400Y3868188D01*
X6395374Y3925338D02*
G01*
X6395374Y3816235D01*
X6395374Y3925338D02*
G01*
X6348615Y3925338D01*
X6333027Y3920144D01*
X6327833Y3914947D01*
X6322636Y3904556D01*
X6322636Y3894165D01*
X6327833Y3883774D01*
X6333027Y3878579D01*
X6348615Y3873385D01*
X6395374Y3873385D02*
G01*
X6348615Y3873385D01*
X6333027Y3868188D01*
X6327833Y3862994D01*
X6322636Y3852603D01*
X6322636Y3837015D01*
X6327833Y3826624D01*
X6333027Y3821429D01*
X6348615Y3816235D01*
X6395374Y3816235D01*
X6288346Y3904556D02*
G01*
X6277955Y3909753D01*
X6262370Y3925338D01*
X6262370Y3816235D01*
X6196906Y3925338D02*
G01*
X6212494Y3920144D01*
X6222885Y3904556D01*
X6228079Y3878579D01*
X6228079Y3862994D01*
X6222885Y3837015D01*
X6212494Y3821429D01*
X6196906Y3816235D01*
X6186515Y3816235D01*
X6170929Y3821429D01*
X6160538Y3837015D01*
X6155344Y3862994D01*
X6155344Y3878579D01*
X6160538Y3904556D01*
X6170929Y3920144D01*
X6186515Y3925338D01*
X6196906Y3925338D01*
X6375400Y2858538D02*
G01*
X6375400Y2749435D01*
X6283959Y2806585D02*
G01*
X6289154Y2816974D01*
X6304742Y2822171D01*
X6320327Y2822171D01*
X6335915Y2816974D01*
X6341109Y2806585D01*
X6335915Y2796194D01*
X6325524Y2790997D01*
X6299545Y2785803D01*
X6289154Y2780606D01*
X6283959Y2770215D01*
X6283959Y2765021D01*
X6289154Y2754629D01*
X6304742Y2749435D01*
X6320327Y2749435D01*
X6335915Y2754629D01*
X6341109Y2765021D01*
X6249670Y2822171D02*
G01*
X6249670Y2749435D01*
X6249670Y2790997D02*
G01*
X6244475Y2806585D01*
X6234084Y2816974D01*
X6223693Y2822171D01*
X6208105Y2822171D01*
X6111471Y2822171D02*
G01*
X6111471Y2749435D01*
X6111471Y2806585D02*
G01*
X6121862Y2816974D01*
X6132253Y2822171D01*
X6147838Y2822171D01*
X6158229Y2816974D01*
X6168621Y2806585D01*
X6173815Y2790997D01*
X6173815Y2780606D01*
X6168621Y2765021D01*
X6158229Y2754629D01*
X6147838Y2749435D01*
X6132253Y2749435D01*
X6121862Y2754629D01*
X6111471Y2765021D01*
X6077181Y2790997D02*
G01*
X6014834Y2790997D01*
X6014834Y2801388D01*
X6020031Y2811779D01*
X6025225Y2816974D01*
X6035616Y2822171D01*
X6051204Y2822171D01*
X6061595Y2816974D01*
X6071984Y2806585D01*
X6077181Y2790997D01*
X6077181Y2780606D01*
X6071984Y2765021D01*
X6061595Y2754629D01*
X6051204Y2749435D01*
X6035616Y2749435D01*
X6025225Y2754629D01*
X6014834Y2765021D01*
X5980544Y2858538D02*
G01*
X5980544Y2749435D01*
X5866244Y2858538D02*
G01*
X5866244Y2749435D01*
X5866244Y2858538D02*
G01*
X5819485Y2858538D01*
X5803900Y2853344D01*
X5798705Y2848147D01*
X5793508Y2837756D01*
X5793508Y2827365D01*
X5798705Y2816974D01*
X5803900Y2811779D01*
X5819485Y2806585D01*
X5866244Y2806585D01*
X5829876Y2806585D02*
G01*
X5793508Y2749435D01*
X5754024Y2775412D02*
G01*
X5759218Y2770215D01*
X5754024Y2765021D01*
X5748827Y2770215D01*
X5754024Y2775412D01*
X5634527Y2858538D02*
G01*
X5634527Y2749435D01*
X5634527Y2858538D02*
G01*
X5598159Y2858538D01*
X5582574Y2853344D01*
X5572183Y2842953D01*
X5566986Y2832562D01*
X5561792Y2816974D01*
X5561792Y2790997D01*
X5566986Y2775412D01*
X5572183Y2765021D01*
X5582574Y2754629D01*
X5598159Y2749435D01*
X5634527Y2749435D01*
X5527502Y2822171D02*
G01*
X5527502Y2770215D01*
X5522305Y2754629D01*
X5511914Y2749435D01*
X5496328Y2749435D01*
X5485937Y2754629D01*
X5470352Y2770215D01*
X5470352Y2822171D02*
G01*
X5470352Y2749435D01*
X5420474Y2858538D02*
G01*
X5420474Y2770215D01*
X5415279Y2754629D01*
X5404888Y2749435D01*
X5394497Y2749435D01*
X5436062Y2822171D02*
G01*
X5399694Y2822171D01*
X5360207Y2822171D02*
G01*
X5360207Y2749435D01*
X5360207Y2790997D02*
G01*
X5355013Y2806585D01*
X5344622Y2816974D01*
X5334231Y2822171D01*
X5318645Y2822171D01*
X5222008Y2822171D02*
G01*
X5222008Y2749435D01*
X5222008Y2806585D02*
G01*
X5232400Y2816974D01*
X5242791Y2822171D01*
X5258376Y2822171D01*
X5268767Y2816974D01*
X5279158Y2806585D01*
X5284355Y2790997D01*
X5284355Y2780606D01*
X5279158Y2765021D01*
X5268767Y2754629D01*
X5258376Y2749435D01*
X5242791Y2749435D01*
X5232400Y2754629D01*
X5222008Y2765021D01*
X6350000Y3061738D02*
G01*
X6350000Y2952635D01*
X6350000Y3061738D02*
G01*
X6303241Y3061738D01*
X6287655Y3056544D01*
X6282458Y3051347D01*
X6277264Y3040956D01*
X6277264Y3030565D01*
X6282458Y3020174D01*
X6287655Y3014979D01*
X6303241Y3009785D01*
X6350000Y3009785D01*
X6313632Y3009785D02*
G01*
X6277264Y2952635D01*
X6242974Y3061738D02*
G01*
X6242974Y2952635D01*
X6242974Y3061738D02*
G01*
X6175433Y3061738D01*
X6242974Y3009785D02*
G01*
X6201409Y3009785D01*
X6141143Y3061738D02*
G01*
X6141143Y2952635D01*
X6106853Y3061738D02*
G01*
X6106853Y2952635D01*
X6106853Y3061738D02*
G01*
X6070485Y3061738D01*
X6054897Y3056544D01*
X6044506Y3046153D01*
X6039312Y3035762D01*
X6034115Y3020174D01*
X6034115Y2994197D01*
X6039312Y2978612D01*
X6044506Y2968221D01*
X6054897Y2957829D01*
X6070485Y2952635D01*
X6106853Y2952635D01*
X5847079Y3046153D02*
G01*
X5857471Y3056544D01*
X5873056Y3061738D01*
X5893838Y3061738D01*
X5909424Y3056544D01*
X5919815Y3046153D01*
X5919815Y3035762D01*
X5914621Y3025371D01*
X5909424Y3020174D01*
X5899035Y3014979D01*
X5867862Y3004588D01*
X5857471Y2999394D01*
X5852274Y2994197D01*
X5847079Y2983806D01*
X5847079Y2968221D01*
X5857471Y2957829D01*
X5873056Y2952635D01*
X5893838Y2952635D01*
X5909424Y2957829D01*
X5919815Y2968221D01*
X5776422Y3061738D02*
G01*
X5776422Y2952635D01*
X5812790Y3061738D02*
G01*
X5740054Y3061738D01*
X5664200Y3061738D02*
G01*
X5705764Y2952635D01*
X5664200Y3061738D02*
G01*
X5622635Y2952635D01*
X5690176Y2989003D02*
G01*
X5638223Y2989003D01*
X5551977Y3061738D02*
G01*
X5551977Y2952635D01*
X5588345Y3061738D02*
G01*
X5515609Y3061738D01*
X5481320Y3061738D02*
G01*
X5481320Y2952635D01*
X5415856Y3061738D02*
G01*
X5426247Y3056544D01*
X5436638Y3046153D01*
X5441835Y3035762D01*
X5447029Y3020174D01*
X5447029Y2994197D01*
X5441835Y2978612D01*
X5436638Y2968221D01*
X5426247Y2957829D01*
X5415856Y2952635D01*
X5395074Y2952635D01*
X5384685Y2957829D01*
X5374294Y2968221D01*
X5369097Y2978612D01*
X5363903Y2994197D01*
X5363903Y3020174D01*
X5369097Y3035762D01*
X5374294Y3046153D01*
X5384685Y3056544D01*
X5395074Y3061738D01*
X5415856Y3061738D01*
X5329613Y3061738D02*
G01*
X5329613Y2952635D01*
X5329613Y3061738D02*
G01*
X5256875Y2952635D01*
X5256875Y3061738D02*
G01*
X5256875Y2952635D01*
X2817667Y4788362D02*
G01*
X2822864Y4798753D01*
X2833255Y4809144D01*
X2843644Y4814338D01*
X2864426Y4814338D01*
X2874817Y4809144D01*
X2885208Y4798753D01*
X2890405Y4788362D01*
X2895600Y4772774D01*
X2895600Y4746797D01*
X2890405Y4731212D01*
X2885208Y4720821D01*
X2874817Y4710429D01*
X2864426Y4705235D01*
X2843644Y4705235D01*
X2833255Y4710429D01*
X2822864Y4720821D01*
X2817667Y4731212D01*
X2817667Y4746797D01*
X2843644Y4746797D02*
G01*
X2817667Y4746797D01*
X2783377Y4814338D02*
G01*
X2783377Y4705235D01*
X2783377Y4814338D02*
G01*
X2710642Y4705235D01*
X2710642Y4814338D02*
G01*
X2710642Y4705235D01*
X2676352Y4814338D02*
G01*
X2676352Y4705235D01*
X2676352Y4814338D02*
G01*
X2639984Y4814338D01*
X2624396Y4809144D01*
X2614005Y4798753D01*
X2608811Y4788362D01*
X2603614Y4772774D01*
X2603614Y4746797D01*
X2608811Y4731212D01*
X2614005Y4720821D01*
X2624396Y4710429D01*
X2639984Y4705235D01*
X2676352Y4705235D01*
X2936008Y5296938D02*
G01*
X2878858Y5296938D01*
X2910032Y5255374D01*
X2894444Y5255374D01*
X2884055Y5250179D01*
X2878858Y5244985D01*
X2873664Y5229397D01*
X2873664Y5219006D01*
X2878858Y5203421D01*
X2889250Y5193029D01*
X2904835Y5187835D01*
X2920423Y5187835D01*
X2936008Y5193029D01*
X2941205Y5198224D01*
X2946400Y5208615D01*
X2834177Y5213812D02*
G01*
X2839374Y5208615D01*
X2834177Y5203421D01*
X2828983Y5208615D01*
X2834177Y5213812D01*
X2784302Y5296938D02*
G01*
X2727152Y5296938D01*
X2758325Y5255374D01*
X2742737Y5255374D01*
X2732346Y5250179D01*
X2727152Y5244985D01*
X2721955Y5229397D01*
X2721955Y5219006D01*
X2727152Y5203421D01*
X2737543Y5193029D01*
X2753128Y5187835D01*
X2768714Y5187835D01*
X2784302Y5193029D01*
X2789496Y5198224D01*
X2794693Y5208615D01*
X2687665Y5296938D02*
G01*
X2646103Y5187835D01*
X2604538Y5296938D02*
G01*
X2646103Y5187835D01*
X6481041Y3681153D02*
G01*
X6481041Y3587635D01*
X6527800Y3634394D02*
G01*
X6434282Y3634394D01*
X6389601Y3696738D02*
G01*
X6332451Y3696738D01*
X6363624Y3655174D01*
X6348036Y3655174D01*
X6337645Y3649979D01*
X6332451Y3644785D01*
X6327254Y3629197D01*
X6327254Y3618806D01*
X6332451Y3603221D01*
X6342842Y3592829D01*
X6358427Y3587635D01*
X6374015Y3587635D01*
X6389601Y3592829D01*
X6394795Y3598024D01*
X6399992Y3608415D01*
X6287770Y3613612D02*
G01*
X6292964Y3608415D01*
X6287770Y3603221D01*
X6282575Y3608415D01*
X6287770Y3613612D01*
X6237894Y3696738D02*
G01*
X6180744Y3696738D01*
X6211915Y3655174D01*
X6196329Y3655174D01*
X6185938Y3649979D01*
X6180744Y3644785D01*
X6175547Y3629197D01*
X6175547Y3618806D01*
X6180744Y3603221D01*
X6191135Y3592829D01*
X6206721Y3587635D01*
X6222306Y3587635D01*
X6237894Y3592829D01*
X6243088Y3598024D01*
X6248285Y3608415D01*
X6141257Y3696738D02*
G01*
X6099695Y3587635D01*
X6058131Y3696738D02*
G01*
X6099695Y3587635D01*
X6424467Y3391362D02*
G01*
X6429664Y3401753D01*
X6440055Y3412144D01*
X6450444Y3417338D01*
X6471226Y3417338D01*
X6481617Y3412144D01*
X6492008Y3401753D01*
X6497205Y3391362D01*
X6502400Y3375774D01*
X6502400Y3349797D01*
X6497205Y3334212D01*
X6492008Y3323821D01*
X6481617Y3313429D01*
X6471226Y3308235D01*
X6450444Y3308235D01*
X6440055Y3313429D01*
X6429664Y3323821D01*
X6424467Y3334212D01*
X6424467Y3349797D01*
X6450444Y3349797D02*
G01*
X6424467Y3349797D01*
X6390177Y3417338D02*
G01*
X6390177Y3308235D01*
X6390177Y3417338D02*
G01*
X6317442Y3308235D01*
X6317442Y3417338D02*
G01*
X6317442Y3308235D01*
X6283152Y3417338D02*
G01*
X6283152Y3308235D01*
X6283152Y3417338D02*
G01*
X6246784Y3417338D01*
X6231196Y3412144D01*
X6220805Y3401753D01*
X6215611Y3391362D01*
X6210414Y3375774D01*
X6210414Y3349797D01*
X6215611Y3334212D01*
X6220805Y3323821D01*
X6231196Y3313429D01*
X6246784Y3308235D01*
X6283152Y3308235D01*
X3630353Y5101358D02*
G01*
X3536835Y5101358D01*
X3583594Y5054600D02*
G01*
X3583594Y5148117D01*
X3645938Y5192798D02*
G01*
X3645938Y5249948D01*
X3604374Y5218775D01*
X3604374Y5234363D01*
X3599179Y5244754D01*
X3593985Y5249948D01*
X3578397Y5255145D01*
X3568006Y5255145D01*
X3552421Y5249948D01*
X3542029Y5239557D01*
X3536835Y5223972D01*
X3536835Y5208384D01*
X3542029Y5192798D01*
X3547224Y5187604D01*
X3557615Y5182407D01*
X3562812Y5294629D02*
G01*
X3557615Y5289435D01*
X3552421Y5294629D01*
X3557615Y5299824D01*
X3562812Y5294629D01*
X3645938Y5344505D02*
G01*
X3645938Y5401655D01*
X3604374Y5370484D01*
X3604374Y5386070D01*
X3599179Y5396461D01*
X3593985Y5401655D01*
X3578397Y5406852D01*
X3568006Y5406852D01*
X3552421Y5401655D01*
X3542029Y5391264D01*
X3536835Y5375678D01*
X3536835Y5360093D01*
X3542029Y5344505D01*
X3547224Y5339311D01*
X3557615Y5334114D01*
X3645938Y5441142D02*
G01*
X3536835Y5482704D01*
X3645938Y5524268D02*
G01*
X3536835Y5482704D01*
X2868467Y5499562D02*
G01*
X2873664Y5509953D01*
X2884055Y5520344D01*
X2894444Y5525538D01*
X2915226Y5525538D01*
X2925617Y5520344D01*
X2936008Y5509953D01*
X2941205Y5499562D01*
X2946400Y5483974D01*
X2946400Y5457997D01*
X2941205Y5442412D01*
X2936008Y5432021D01*
X2925617Y5421629D01*
X2915226Y5416435D01*
X2894444Y5416435D01*
X2884055Y5421629D01*
X2873664Y5432021D01*
X2868467Y5442412D01*
X2868467Y5457997D01*
X2894444Y5457997D02*
G01*
X2868467Y5457997D01*
X2834177Y5525538D02*
G01*
X2834177Y5416435D01*
X2834177Y5525538D02*
G01*
X2761442Y5416435D01*
X2761442Y5525538D02*
G01*
X2761442Y5416435D01*
X2727152Y5525538D02*
G01*
X2727152Y5416435D01*
X2727152Y5525538D02*
G01*
X2690784Y5525538D01*
X2675196Y5520344D01*
X2664805Y5509953D01*
X2659611Y5499562D01*
X2654414Y5483974D01*
X2654414Y5457997D01*
X2659611Y5442412D01*
X2664805Y5432021D01*
X2675196Y5421629D01*
X2690784Y5416435D01*
X2727152Y5416435D01*
M02*
