G04 Layer: TopPasteMaskLayer*
G04 EasyEDA v6.5.39, 2024-01-11 12:10:10*
G04 6726c83836ac4f208e7d9a6969430780,b65fc79a3ba447d2aedd2257ff82dca6,10*
G04 Gerber Generator version 0.2*
G04 Scale: 100 percent, Rotated: No, Reflected: No *
G04 Dimensions in millimeters *
G04 leading zeros omitted , absolute positions ,4 integer and 5 decimal *
%FSLAX45Y45*%
%MOMM*%

%AMMACRO1*21,1,$1,$2,0,0,$3*%
%ADD10R,2.0000X1.6002*%
%ADD11R,1.0000X1.3995*%
%ADD12R,1.1000X2.5000*%
%ADD13MACRO1,3.6002X2.3398X0.0000*%
%ADD14O,0.27000199999999996X1.499997*%
%ADD15O,1.499997X0.27000199999999996*%
%ADD16MACRO1,1.1999X1.4X90.0000*%
%ADD17R,1.4000X1.2000*%
%ADD18MACRO1,1.1999X1.4X-90.0000*%
%ADD19C,0.0168*%

%LPD*%
G36*
X3590798Y5020005D02*
G01*
X3585819Y5014976D01*
X3586276Y4973015D01*
X3630320Y4973015D01*
X3630320Y4928006D01*
X3585311Y4928006D01*
X3585819Y4887010D01*
X3590798Y4881981D01*
X3705809Y4881981D01*
X3710787Y4887010D01*
X3710787Y5014976D01*
X3705809Y5020005D01*
G37*
G36*
X3375812Y5020005D02*
G01*
X3370783Y5014976D01*
X3370783Y4887010D01*
X3375812Y4881981D01*
X3490823Y4881981D01*
X3495801Y4887010D01*
X3495294Y4928006D01*
X3451301Y4928006D01*
X3451301Y4973015D01*
X3495801Y4973015D01*
X3495801Y5014976D01*
X3490823Y5020005D01*
G37*
G36*
X3556406Y3615588D02*
G01*
X3515410Y3615080D01*
X3510381Y3610101D01*
X3510381Y3495090D01*
X3515410Y3490112D01*
X3643376Y3490112D01*
X3648405Y3495090D01*
X3648405Y3610101D01*
X3643376Y3615080D01*
X3601415Y3614623D01*
X3601415Y3570579D01*
X3556406Y3570579D01*
G37*
G36*
X3515410Y3830116D02*
G01*
X3510381Y3825087D01*
X3510381Y3710076D01*
X3515410Y3705098D01*
X3556406Y3705606D01*
X3556406Y3749598D01*
X3601415Y3749598D01*
X3601415Y3705098D01*
X3643376Y3705098D01*
X3648405Y3710076D01*
X3648405Y3825087D01*
X3643376Y3830116D01*
G37*
G36*
X4891024Y4548987D02*
G01*
X4885994Y4544009D01*
X4885994Y4428998D01*
X4891024Y4424019D01*
X4932984Y4424476D01*
X4932984Y4468520D01*
X4977993Y4468520D01*
X4977993Y4423511D01*
X5018989Y4424019D01*
X5024018Y4428998D01*
X5024018Y4544009D01*
X5018989Y4548987D01*
G37*
G36*
X4891024Y4334002D02*
G01*
X4885994Y4329023D01*
X4885994Y4214012D01*
X4891024Y4208983D01*
X5018989Y4208983D01*
X5024018Y4214012D01*
X5024018Y4329023D01*
X5018989Y4334002D01*
X4977993Y4333494D01*
X4977993Y4289501D01*
X4932984Y4289501D01*
X4932984Y4334002D01*
G37*
G36*
X3251606Y3615588D02*
G01*
X3210610Y3615080D01*
X3205581Y3610101D01*
X3205581Y3495090D01*
X3210610Y3490112D01*
X3338576Y3490112D01*
X3343605Y3495090D01*
X3343605Y3610101D01*
X3338576Y3615080D01*
X3296615Y3614623D01*
X3296615Y3570579D01*
X3251606Y3570579D01*
G37*
G36*
X3210610Y3830116D02*
G01*
X3205581Y3825087D01*
X3205581Y3710076D01*
X3210610Y3705098D01*
X3251606Y3705606D01*
X3251606Y3749598D01*
X3296615Y3749598D01*
X3296615Y3705098D01*
X3338576Y3705098D01*
X3343605Y3710076D01*
X3343605Y3825087D01*
X3338576Y3830116D01*
G37*
G36*
X3647490Y4719218D02*
G01*
X3642512Y4714189D01*
X3642512Y4586224D01*
X3647490Y4581194D01*
X3762501Y4581194D01*
X3767480Y4586224D01*
X3767023Y4628184D01*
X3722979Y4628184D01*
X3722979Y4673193D01*
X3767988Y4673193D01*
X3767480Y4714189D01*
X3762501Y4719218D01*
G37*
G36*
X3862476Y4719218D02*
G01*
X3857498Y4714189D01*
X3858006Y4673193D01*
X3901998Y4673193D01*
X3901998Y4628184D01*
X3857498Y4628184D01*
X3857498Y4586224D01*
X3862476Y4581194D01*
X3977487Y4581194D01*
X3982516Y4586224D01*
X3982516Y4714189D01*
X3977487Y4719218D01*
G37*
G36*
X4700524Y3532987D02*
G01*
X4695494Y3528009D01*
X4695494Y3412998D01*
X4700524Y3408019D01*
X4742484Y3408476D01*
X4742484Y3452520D01*
X4787493Y3452520D01*
X4787493Y3407511D01*
X4828489Y3408019D01*
X4833518Y3412998D01*
X4833518Y3528009D01*
X4828489Y3532987D01*
G37*
G36*
X4700524Y3318001D02*
G01*
X4695494Y3313023D01*
X4695494Y3198012D01*
X4700524Y3192983D01*
X4828489Y3192983D01*
X4833518Y3198012D01*
X4833518Y3313023D01*
X4828489Y3318001D01*
X4787493Y3317494D01*
X4787493Y3273501D01*
X4742484Y3273501D01*
X4742484Y3318001D01*
G37*
G36*
X5018024Y3532987D02*
G01*
X5012994Y3528009D01*
X5012994Y3412998D01*
X5018024Y3408019D01*
X5059984Y3408476D01*
X5059984Y3452520D01*
X5104993Y3452520D01*
X5104993Y3407511D01*
X5145989Y3408019D01*
X5151018Y3412998D01*
X5151018Y3528009D01*
X5145989Y3532987D01*
G37*
G36*
X5018024Y3318001D02*
G01*
X5012994Y3313023D01*
X5012994Y3198012D01*
X5018024Y3192983D01*
X5145989Y3192983D01*
X5151018Y3198012D01*
X5151018Y3313023D01*
X5145989Y3318001D01*
X5104993Y3317494D01*
X5104993Y3273501D01*
X5059984Y3273501D01*
X5059984Y3318001D01*
G37*
G36*
X5767324Y3634587D02*
G01*
X5762294Y3629609D01*
X5762294Y3514598D01*
X5767324Y3509619D01*
X5809284Y3510076D01*
X5809284Y3554120D01*
X5854293Y3554120D01*
X5854293Y3509111D01*
X5895289Y3509619D01*
X5900318Y3514598D01*
X5900318Y3629609D01*
X5895289Y3634587D01*
G37*
G36*
X5767324Y3419601D02*
G01*
X5762294Y3414623D01*
X5762294Y3299612D01*
X5767324Y3294583D01*
X5895289Y3294583D01*
X5900318Y3299612D01*
X5900318Y3414623D01*
X5895289Y3419601D01*
X5854293Y3419094D01*
X5854293Y3375101D01*
X5809284Y3375101D01*
X5809284Y3419601D01*
G37*
G36*
X4663490Y3055518D02*
G01*
X4658512Y3050489D01*
X4658512Y2922524D01*
X4663490Y2917494D01*
X4778502Y2917494D01*
X4783480Y2922524D01*
X4783023Y2964484D01*
X4738979Y2964484D01*
X4738979Y3009493D01*
X4783988Y3009493D01*
X4783480Y3050489D01*
X4778502Y3055518D01*
G37*
G36*
X4878476Y3055518D02*
G01*
X4873498Y3050489D01*
X4874006Y3009493D01*
X4917998Y3009493D01*
X4917998Y2964484D01*
X4873498Y2964484D01*
X4873498Y2922524D01*
X4878476Y2917494D01*
X4993487Y2917494D01*
X4998516Y2922524D01*
X4998516Y3050489D01*
X4993487Y3055518D01*
G37*
G36*
X4111498Y3318205D02*
G01*
X4106519Y3313176D01*
X4106976Y3271215D01*
X4151020Y3271215D01*
X4151020Y3226206D01*
X4106011Y3226206D01*
X4106519Y3185210D01*
X4111498Y3180181D01*
X4226509Y3180181D01*
X4231487Y3185210D01*
X4231487Y3313176D01*
X4226509Y3318205D01*
G37*
G36*
X3896512Y3318205D02*
G01*
X3891483Y3313176D01*
X3891483Y3185210D01*
X3896512Y3180181D01*
X4011523Y3180181D01*
X4016501Y3185210D01*
X4015994Y3226206D01*
X3972001Y3226206D01*
X3972001Y3271215D01*
X4016501Y3271215D01*
X4016501Y3313176D01*
X4011523Y3318205D01*
G37*
G36*
X3595624Y3329787D02*
G01*
X3590594Y3324809D01*
X3590594Y3209798D01*
X3595624Y3204819D01*
X3637584Y3205276D01*
X3637584Y3249320D01*
X3682593Y3249320D01*
X3682593Y3204311D01*
X3723589Y3204819D01*
X3728618Y3209798D01*
X3728618Y3324809D01*
X3723589Y3329787D01*
G37*
G36*
X3595624Y3114802D02*
G01*
X3590594Y3109823D01*
X3590594Y2994812D01*
X3595624Y2989783D01*
X3723589Y2989783D01*
X3728618Y2994812D01*
X3728618Y3109823D01*
X3723589Y3114802D01*
X3682593Y3114294D01*
X3682593Y3070301D01*
X3637584Y3070301D01*
X3637584Y3114802D01*
G37*
G36*
X5171490Y5481218D02*
G01*
X5166512Y5476189D01*
X5166512Y5348224D01*
X5171490Y5343194D01*
X5286502Y5343194D01*
X5291480Y5348224D01*
X5291023Y5390184D01*
X5246979Y5390184D01*
X5246979Y5435193D01*
X5291988Y5435193D01*
X5291480Y5476189D01*
X5286502Y5481218D01*
G37*
G36*
X5386476Y5481218D02*
G01*
X5381498Y5476189D01*
X5382006Y5435193D01*
X5425998Y5435193D01*
X5425998Y5390184D01*
X5381498Y5390184D01*
X5381498Y5348224D01*
X5386476Y5343194D01*
X5501487Y5343194D01*
X5506516Y5348224D01*
X5506516Y5476189D01*
X5501487Y5481218D01*
G37*
G36*
X5842406Y4568088D02*
G01*
X5801410Y4567580D01*
X5796381Y4562602D01*
X5796381Y4447590D01*
X5801410Y4442612D01*
X5929376Y4442612D01*
X5934405Y4447590D01*
X5934405Y4562602D01*
X5929376Y4567580D01*
X5887415Y4567123D01*
X5887415Y4523079D01*
X5842406Y4523079D01*
G37*
G36*
X5801410Y4782616D02*
G01*
X5796381Y4777587D01*
X5796381Y4662576D01*
X5801410Y4657598D01*
X5842406Y4658106D01*
X5842406Y4702098D01*
X5887415Y4702098D01*
X5887415Y4657598D01*
X5929376Y4657598D01*
X5934405Y4662576D01*
X5934405Y4777587D01*
X5929376Y4782616D01*
G37*
G36*
X2958592Y3827627D02*
G01*
X2953613Y3822598D01*
X2953613Y3707587D01*
X2958592Y3702608D01*
X3000603Y3703116D01*
X3000603Y3747109D01*
X3045612Y3747109D01*
X3045612Y3702100D01*
X3086608Y3702608D01*
X3091586Y3707587D01*
X3091586Y3822598D01*
X3086608Y3827627D01*
G37*
G36*
X2958592Y3612591D02*
G01*
X2953613Y3607612D01*
X2953613Y3492601D01*
X2958592Y3487623D01*
X3086608Y3487623D01*
X3091586Y3492601D01*
X3091586Y3607612D01*
X3086608Y3612591D01*
X3045612Y3612083D01*
X3045612Y3568090D01*
X3000603Y3568090D01*
X3000603Y3612591D01*
G37*
G36*
X3822801Y5047386D02*
G01*
X3817772Y5042408D01*
X3817772Y4914392D01*
X3822801Y4909413D01*
X3937812Y4909413D01*
X3942791Y4914392D01*
X3942283Y4956403D01*
X3898290Y4956403D01*
X3898290Y5001412D01*
X3943299Y5001412D01*
X3942791Y5042408D01*
X3937812Y5047386D01*
G37*
G36*
X4037787Y5047386D02*
G01*
X4032808Y5042408D01*
X4033316Y5001412D01*
X4077309Y5001412D01*
X4077309Y4956403D01*
X4032808Y4956403D01*
X4032808Y4914392D01*
X4037787Y4909413D01*
X4152798Y4909413D01*
X4157776Y4914392D01*
X4157776Y5042408D01*
X4152798Y5047386D01*
G37*
G36*
X6159601Y5021986D02*
G01*
X6154572Y5017008D01*
X6154572Y4888992D01*
X6159601Y4884013D01*
X6274612Y4884013D01*
X6279591Y4888992D01*
X6279083Y4931003D01*
X6235090Y4931003D01*
X6235090Y4976012D01*
X6280099Y4976012D01*
X6279591Y5017008D01*
X6274612Y5021986D01*
G37*
G36*
X6374587Y5021986D02*
G01*
X6369608Y5017008D01*
X6370116Y4976012D01*
X6414109Y4976012D01*
X6414109Y4931003D01*
X6369608Y4931003D01*
X6369608Y4888992D01*
X6374587Y4884013D01*
X6489598Y4884013D01*
X6494576Y4888992D01*
X6494576Y5017008D01*
X6489598Y5021986D01*
G37*
G36*
X6187287Y4070299D02*
G01*
X6146292Y4069791D01*
X6141313Y4064812D01*
X6141313Y3949801D01*
X6146292Y3944772D01*
X6274308Y3944772D01*
X6279286Y3949801D01*
X6279286Y4064812D01*
X6274308Y4069791D01*
X6232296Y4069283D01*
X6232296Y4025290D01*
X6187287Y4025290D01*
G37*
G36*
X6146292Y4284776D02*
G01*
X6141313Y4279798D01*
X6141313Y4164787D01*
X6146292Y4159808D01*
X6187287Y4160316D01*
X6187287Y4204309D01*
X6232296Y4204309D01*
X6232296Y4159808D01*
X6274308Y4159808D01*
X6279286Y4164787D01*
X6279286Y4279798D01*
X6274308Y4284776D01*
G37*
G36*
X6146292Y3827627D02*
G01*
X6141313Y3822598D01*
X6141313Y3707587D01*
X6146292Y3702608D01*
X6188303Y3703116D01*
X6188303Y3747109D01*
X6233312Y3747109D01*
X6233312Y3702100D01*
X6274308Y3702608D01*
X6279286Y3707587D01*
X6279286Y3822598D01*
X6274308Y3827627D01*
G37*
G36*
X6146292Y3612591D02*
G01*
X6141313Y3607612D01*
X6141313Y3492601D01*
X6146292Y3487623D01*
X6274308Y3487623D01*
X6279286Y3492601D01*
X6279286Y3607612D01*
X6274308Y3612591D01*
X6233312Y3612083D01*
X6233312Y3568090D01*
X6188303Y3568090D01*
X6188303Y3612591D01*
G37*
G36*
X4039565Y5325618D02*
G01*
X4039565Y5200599D01*
X4084523Y5200599D01*
X4084523Y5325618D01*
G37*
G36*
X4104538Y5325618D02*
G01*
X4104538Y5200599D01*
X4149547Y5200599D01*
X4149547Y5325618D01*
G37*
G36*
X4169562Y5325618D02*
G01*
X4169562Y5200599D01*
X4214520Y5200599D01*
X4214520Y5325618D01*
G37*
G36*
X4234535Y5325618D02*
G01*
X4234535Y5200599D01*
X4279544Y5200599D01*
X4279544Y5325618D01*
G37*
G36*
X4299559Y5325618D02*
G01*
X4299559Y5200599D01*
X4344517Y5200599D01*
X4344517Y5325618D01*
G37*
G36*
X4434128Y5339791D02*
G01*
X4429048Y5339638D01*
X4424019Y5339080D01*
X4419041Y5338114D01*
X4414164Y5336743D01*
X4409440Y5334965D01*
X4404817Y5332831D01*
X4400448Y5330342D01*
X4396232Y5327446D01*
X4392320Y5324297D01*
X4388612Y5320792D01*
X4385259Y5317032D01*
X4382211Y5312968D01*
X4379468Y5308701D01*
X4377080Y5304231D01*
X4375099Y5299557D01*
X4373473Y5294782D01*
X4372254Y5289854D01*
X4371441Y5284876D01*
X4371035Y5279796D01*
X4371035Y5274767D01*
X4371441Y5269687D01*
X4372254Y5264708D01*
X4373473Y5259781D01*
X4375099Y5255006D01*
X4377080Y5250332D01*
X4379468Y5245862D01*
X4382211Y5241594D01*
X4385259Y5237530D01*
X4388612Y5233771D01*
X4392320Y5230266D01*
X4396232Y5227116D01*
X4400448Y5224221D01*
X4404817Y5221732D01*
X4409440Y5219598D01*
X4414164Y5217820D01*
X4419041Y5216448D01*
X4424019Y5215483D01*
X4429048Y5214924D01*
X4434128Y5214772D01*
X4439208Y5215026D01*
X4444187Y5215686D01*
X4449165Y5216753D01*
X4453991Y5218226D01*
X4458716Y5220106D01*
X4463288Y5222341D01*
X4467606Y5224932D01*
X4471771Y5227878D01*
X4475632Y5231130D01*
X4479239Y5234686D01*
X4482541Y5238546D01*
X4485487Y5242610D01*
X4488129Y5246928D01*
X4490415Y5251500D01*
X4492345Y5256174D01*
X4493818Y5261000D01*
X4494936Y5265928D01*
X4495647Y5270957D01*
X4496003Y5276037D01*
X4495901Y5281066D01*
X4495342Y5286095D01*
X4494428Y5291124D01*
X4493107Y5296001D01*
X4491431Y5300776D01*
X4489348Y5305399D01*
X4486859Y5309819D01*
X4484065Y5314035D01*
X4480915Y5317998D01*
X4477461Y5321706D01*
X4473702Y5325110D01*
X4469739Y5328208D01*
X4465472Y5331002D01*
X4461002Y5333390D01*
X4456379Y5335422D01*
X4451604Y5337098D01*
X4446676Y5338368D01*
X4441698Y5339232D01*
G37*
G36*
X3949141Y5339791D02*
G01*
X3944061Y5339638D01*
X3939032Y5339080D01*
X3934053Y5338114D01*
X3929176Y5336743D01*
X3924452Y5334965D01*
X3919829Y5332831D01*
X3915460Y5330342D01*
X3911244Y5327446D01*
X3907332Y5324297D01*
X3903624Y5320792D01*
X3900271Y5317032D01*
X3897223Y5312968D01*
X3894480Y5308701D01*
X3892092Y5304231D01*
X3890111Y5299557D01*
X3888486Y5294782D01*
X3887266Y5289854D01*
X3886454Y5284876D01*
X3886047Y5279796D01*
X3886047Y5274767D01*
X3886454Y5269687D01*
X3887266Y5264708D01*
X3888486Y5259781D01*
X3890111Y5255006D01*
X3892092Y5250332D01*
X3894480Y5245862D01*
X3897223Y5241594D01*
X3900271Y5237530D01*
X3903624Y5233771D01*
X3907332Y5230266D01*
X3911244Y5227116D01*
X3915460Y5224221D01*
X3919829Y5221732D01*
X3924452Y5219598D01*
X3929176Y5217820D01*
X3934053Y5216448D01*
X3939032Y5215483D01*
X3944061Y5214924D01*
X3949141Y5214772D01*
X3954221Y5215026D01*
X3959199Y5215686D01*
X3964178Y5216753D01*
X3969004Y5218226D01*
X3973728Y5220106D01*
X3978300Y5222341D01*
X3982618Y5224932D01*
X3986784Y5227878D01*
X3990644Y5231130D01*
X3994251Y5234686D01*
X3997553Y5238546D01*
X4000500Y5242610D01*
X4003141Y5246928D01*
X4005427Y5251500D01*
X4007358Y5256174D01*
X4008831Y5261000D01*
X4009948Y5265928D01*
X4010660Y5270957D01*
X4011015Y5276037D01*
X4010914Y5281066D01*
X4010355Y5286095D01*
X4009440Y5291124D01*
X4008120Y5296001D01*
X4006443Y5300776D01*
X4004360Y5305399D01*
X4001871Y5309819D01*
X3999077Y5314035D01*
X3995928Y5317998D01*
X3992473Y5321706D01*
X3988714Y5325110D01*
X3984751Y5328208D01*
X3980484Y5331002D01*
X3976014Y5333390D01*
X3971391Y5335422D01*
X3966616Y5337098D01*
X3961688Y5338368D01*
X3956710Y5339232D01*
G37*
G36*
X3829405Y5667248D02*
G01*
X3822903Y5666740D01*
X3816553Y5665622D01*
X3810304Y5663844D01*
X3804259Y5661507D01*
X3798519Y5658510D01*
X3793083Y5655005D01*
X3788003Y5650992D01*
X3783380Y5646470D01*
X3779215Y5641492D01*
X3775557Y5636158D01*
X3772458Y5630468D01*
X3769918Y5624474D01*
X3767988Y5618276D01*
X3766718Y5611926D01*
X3766108Y5605475D01*
X3766007Y5512257D01*
X3766312Y5505754D01*
X3767277Y5499354D01*
X3768902Y5493054D01*
X3771087Y5487009D01*
X3773932Y5481167D01*
X3777284Y5475630D01*
X3781196Y5470448D01*
X3785615Y5465724D01*
X3790492Y5461406D01*
X3795725Y5457647D01*
X3801364Y5454396D01*
X3807256Y5451754D01*
X3813403Y5449671D01*
X3819702Y5448249D01*
X3826154Y5447436D01*
X3832606Y5447233D01*
X3839108Y5447741D01*
X3845458Y5448858D01*
X3851706Y5450636D01*
X3857751Y5452973D01*
X3863492Y5455970D01*
X3868928Y5459476D01*
X3874008Y5463489D01*
X3878681Y5468010D01*
X3882796Y5472988D01*
X3886454Y5478322D01*
X3889552Y5484012D01*
X3892092Y5490006D01*
X3893972Y5496204D01*
X3895293Y5502554D01*
X3895902Y5509006D01*
X3896004Y5602224D01*
X3895699Y5608726D01*
X3894734Y5615127D01*
X3893108Y5621426D01*
X3890924Y5627471D01*
X3888079Y5633313D01*
X3884726Y5638850D01*
X3880815Y5644032D01*
X3876395Y5648756D01*
X3871518Y5653074D01*
X3866286Y5656834D01*
X3860647Y5660085D01*
X3854754Y5662726D01*
X3848608Y5664809D01*
X3842308Y5666232D01*
X3835857Y5667044D01*
G37*
G36*
X4549394Y5667298D02*
G01*
X4542891Y5666790D01*
X4536541Y5665673D01*
X4530293Y5663895D01*
X4524248Y5661558D01*
X4518507Y5658561D01*
X4513072Y5655056D01*
X4507992Y5651042D01*
X4503318Y5646521D01*
X4499203Y5641543D01*
X4495546Y5636209D01*
X4492447Y5630519D01*
X4489907Y5624525D01*
X4488027Y5618327D01*
X4486706Y5611977D01*
X4486097Y5605526D01*
X4485995Y5512308D01*
X4486300Y5505805D01*
X4487265Y5499404D01*
X4488891Y5493105D01*
X4491075Y5487060D01*
X4493920Y5481218D01*
X4497273Y5475681D01*
X4501184Y5470499D01*
X4505604Y5465775D01*
X4510481Y5461457D01*
X4515713Y5457698D01*
X4521352Y5454446D01*
X4527245Y5451805D01*
X4533392Y5449722D01*
X4539691Y5448300D01*
X4546142Y5447487D01*
X4552594Y5447284D01*
X4559096Y5447792D01*
X4565446Y5448909D01*
X4571695Y5450687D01*
X4577740Y5453024D01*
X4583480Y5456021D01*
X4588916Y5459526D01*
X4593996Y5463540D01*
X4598619Y5468061D01*
X4602784Y5473039D01*
X4606442Y5478373D01*
X4609541Y5484063D01*
X4612081Y5490057D01*
X4614011Y5496255D01*
X4615281Y5502605D01*
X4615891Y5509056D01*
X4615992Y5602274D01*
X4615688Y5608777D01*
X4614722Y5615178D01*
X4613097Y5621477D01*
X4610912Y5627522D01*
X4608068Y5633364D01*
X4604715Y5638901D01*
X4600803Y5644083D01*
X4596384Y5648807D01*
X4591507Y5653125D01*
X4586274Y5656884D01*
X4580636Y5660136D01*
X4574743Y5662777D01*
X4568596Y5664860D01*
X4562297Y5666282D01*
X4555845Y5667095D01*
G37*
D10*
G01*
X5486400Y3230879D03*
G01*
X5486400Y3550894D03*
D11*
G01*
X6219570Y4495800D03*
G01*
X6429629Y4495800D03*
D12*
G01*
X5563997Y5059502D03*
G01*
X5334000Y5059502D03*
G01*
X5104002Y5059502D03*
D13*
G01*
X5334000Y4465497D03*
D14*
G01*
X3992194Y3537407D03*
G01*
X4042206Y3537407D03*
G01*
X4092193Y3537407D03*
G01*
X4142206Y3537407D03*
G01*
X4192193Y3537407D03*
G01*
X4242206Y3537407D03*
G01*
X4292193Y3537407D03*
G01*
X4342206Y3537407D03*
G01*
X4392193Y3537407D03*
G01*
X4442206Y3537407D03*
G01*
X4492193Y3537407D03*
G01*
X4542205Y3537407D03*
D15*
G01*
X4692192Y3687394D03*
G01*
X4692192Y3737406D03*
G01*
X4692192Y3787394D03*
G01*
X4692192Y3837406D03*
G01*
X4692192Y3887393D03*
G01*
X4692192Y3937406D03*
G01*
X4692192Y3987393D03*
G01*
X4692192Y4037406D03*
G01*
X4692192Y4087393D03*
G01*
X4692192Y4137405D03*
G01*
X4692192Y4187393D03*
G01*
X4692192Y4237405D03*
D14*
G01*
X4542205Y4387392D03*
G01*
X4492193Y4387392D03*
G01*
X4442206Y4387392D03*
G01*
X4392193Y4387392D03*
G01*
X4342206Y4387392D03*
G01*
X4292193Y4387392D03*
G01*
X4242206Y4387392D03*
G01*
X4192193Y4387392D03*
G01*
X4142206Y4387392D03*
G01*
X4092193Y4387392D03*
G01*
X4042206Y4387392D03*
G01*
X3992194Y4387392D03*
D15*
G01*
X3842207Y4237405D03*
G01*
X3842207Y4187393D03*
G01*
X3842207Y4137405D03*
G01*
X3842207Y4087393D03*
G01*
X3842207Y4037406D03*
G01*
X3842207Y3987393D03*
G01*
X3842207Y3937406D03*
G01*
X3842207Y3887393D03*
G01*
X3842207Y3837406D03*
G01*
X3842207Y3787394D03*
G01*
X3842207Y3737406D03*
G01*
X3842207Y3687394D03*
D16*
G01*
X3966692Y2848711D03*
G01*
X4186707Y2848711D03*
D17*
G01*
X4186707Y3018713D03*
D18*
G01*
X3966692Y3018713D03*
M02*
