G04 Layer: TopLayer*
G04 EasyEDA v6.5.39, 2024-01-11 12:10:10*
G04 6726c83836ac4f208e7d9a6969430780,b65fc79a3ba447d2aedd2257ff82dca6,10*
G04 Gerber Generator version 0.2*
G04 Scale: 100 percent, Rotated: No, Reflected: No *
G04 Dimensions in millimeters *
G04 leading zeros omitted , absolute positions ,4 integer and 5 decimal *
%FSLAX45Y45*%
%MOMM*%

%AMMACRO1*21,1,$1,$2,0,0,$3*%
%ADD10C,0.2540*%
%ADD11C,0.3810*%
%ADD12C,0.5080*%
%ADD13C,0.1270*%
%ADD14R,2.0000X1.6002*%
%ADD15MACRO1,1.35X1.41X-90.0000*%
%ADD16MACRO1,1.35X1.41X0.0000*%
%ADD17R,1.3500X1.4100*%
%ADD18MACRO1,1.35X1.41X90.0000*%
%ADD19R,1.0000X1.3995*%
%ADD20MACRO1,1.377X1.1325X0.0000*%
%ADD21R,1.3770X1.1325*%
%ADD22MACRO1,1.377X1.1325X90.0000*%
%ADD23R,1.1000X2.5000*%
%ADD24MACRO1,3.6X2.34X0.0000*%
%ADD25O,0.27000199999999996X1.499997*%
%ADD26O,1.499997X0.27000199999999996*%
%ADD27R,0.4500X1.2500*%
%ADD28MACRO1,1.2X1.4X90.0000*%
%ADD29R,1.4000X1.2000*%
%ADD30MACRO1,1.2X1.4X-90.0000*%
%ADD31R,1.5748X1.5748*%
%ADD32C,1.5748*%
%ADD33O,1.2999974X2.1999956000000003*%
%ADD34C,1.2500*%
%ADD35O,1.199896X0.9999979999999999*%
%ADD36O,0.9999979999999999X1.7999964*%
%ADD37C,0.7000*%
%ADD38C,0.6200*%
%ADD39C,2.5000*%
%ADD40C,0.0159*%

%LPD*%
G36*
X5757316Y4648200D02*
G01*
X5753404Y4648962D01*
X5750102Y4651197D01*
X5510072Y4891227D01*
X5507837Y4894529D01*
X5507075Y4898440D01*
X5507837Y4902301D01*
X5510072Y4905603D01*
X5513374Y4907838D01*
X5517235Y4908600D01*
X5530138Y4908600D01*
X5530138Y4990642D01*
X5483098Y4990642D01*
X5483098Y4942738D01*
X5482336Y4938826D01*
X5480100Y4935575D01*
X5476798Y4933340D01*
X5472938Y4932578D01*
X5469026Y4933340D01*
X5465724Y4935575D01*
X5451297Y4950002D01*
X5449062Y4953304D01*
X5448300Y4957216D01*
X5448300Y5400040D01*
X5449062Y5403951D01*
X5451297Y5407202D01*
X5454548Y5409438D01*
X5458460Y5410200D01*
X6238240Y5410200D01*
X6242151Y5409438D01*
X6245402Y5407202D01*
X6247638Y5403951D01*
X6248400Y5400040D01*
X6248400Y4658360D01*
X6247638Y4654448D01*
X6245402Y4651197D01*
X6242151Y4648962D01*
X6238240Y4648200D01*
X5970981Y4648200D01*
X5967069Y4648962D01*
X5963767Y4651197D01*
X5961583Y4654448D01*
X5960821Y4658360D01*
X5960821Y4668520D01*
X5907481Y4668520D01*
X5907481Y4658360D01*
X5906719Y4654448D01*
X5904534Y4651197D01*
X5901232Y4648962D01*
X5897321Y4648200D01*
X5837478Y4648200D01*
X5833567Y4648962D01*
X5830265Y4651197D01*
X5828080Y4654448D01*
X5827318Y4658360D01*
X5827318Y4668520D01*
X5773978Y4668520D01*
X5773978Y4658360D01*
X5773216Y4654448D01*
X5771032Y4651197D01*
X5767730Y4648962D01*
X5763818Y4648200D01*
G37*

%LPC*%
G36*
X5907481Y4751679D02*
G01*
X5960821Y4751679D01*
X5960821Y4780026D01*
X5960110Y4786376D01*
X5958179Y4791811D01*
X5955080Y4796739D01*
X5951016Y4800803D01*
X5946089Y4803902D01*
X5940653Y4805781D01*
X5934354Y4806492D01*
X5907481Y4806492D01*
G37*
G36*
X5773978Y4751679D02*
G01*
X5827318Y4751679D01*
X5827318Y4806492D01*
X5800445Y4806492D01*
X5794146Y4805781D01*
X5788710Y4803902D01*
X5783783Y4800803D01*
X5779719Y4796739D01*
X5776620Y4791811D01*
X5774690Y4786376D01*
X5773978Y4780026D01*
G37*
G36*
X6168542Y4858258D02*
G01*
X6189929Y4858258D01*
X6189929Y4912207D01*
X6142075Y4912207D01*
X6142075Y4884724D01*
X6142786Y4878374D01*
X6144666Y4872939D01*
X6147765Y4868011D01*
X6151880Y4863947D01*
X6156756Y4860848D01*
X6162192Y4858969D01*
G37*
G36*
X5597855Y4908600D02*
G01*
X5618429Y4908600D01*
X5624728Y4909312D01*
X5630214Y4911191D01*
X5635091Y4914290D01*
X5639206Y4918405D01*
X5642305Y4923282D01*
X5644184Y4928768D01*
X5644896Y4935067D01*
X5644896Y4990642D01*
X5597855Y4990642D01*
G37*
G36*
X6142075Y4993792D02*
G01*
X6189929Y4993792D01*
X6189929Y5047742D01*
X6168542Y5047742D01*
X6162192Y5047030D01*
X6156756Y5045151D01*
X6151880Y5042052D01*
X6147765Y5037988D01*
X6144666Y5033060D01*
X6142786Y5027625D01*
X6142075Y5021275D01*
G37*
G36*
X5483098Y5128361D02*
G01*
X5530138Y5128361D01*
X5530138Y5210403D01*
X5509564Y5210403D01*
X5503265Y5209692D01*
X5497779Y5207762D01*
X5492902Y5204714D01*
X5488787Y5200599D01*
X5485739Y5195722D01*
X5483809Y5190236D01*
X5483098Y5183936D01*
G37*
G36*
X5597855Y5128361D02*
G01*
X5644896Y5128361D01*
X5644896Y5183936D01*
X5644184Y5190236D01*
X5642305Y5195722D01*
X5639206Y5200599D01*
X5635091Y5204714D01*
X5630214Y5207762D01*
X5624728Y5209692D01*
X5618429Y5210403D01*
X5597855Y5210403D01*
G37*
G36*
X5475579Y5316778D02*
G01*
X5503926Y5316778D01*
X5510276Y5317490D01*
X5515711Y5319420D01*
X5520639Y5322519D01*
X5524703Y5326583D01*
X5527802Y5331510D01*
X5529681Y5336946D01*
X5530392Y5343245D01*
X5530392Y5370118D01*
X5475579Y5370118D01*
G37*

%LPD*%
G36*
X4971999Y4495800D02*
G01*
X4967732Y4496714D01*
X4964277Y4499356D01*
X4962194Y4503216D01*
X4961940Y4507534D01*
X4963515Y4511598D01*
X4974488Y4528007D01*
X4977485Y4530953D01*
X4981397Y4532426D01*
X4985562Y4532223D01*
X4989271Y4530344D01*
X4991912Y4527143D01*
X4993081Y4523079D01*
X5046421Y4523079D01*
X5046421Y4551426D01*
X5045710Y4557776D01*
X5043779Y4563211D01*
X5040680Y4568139D01*
X5036616Y4572203D01*
X5031689Y4575302D01*
X5026253Y4577181D01*
X5021224Y4578604D01*
X5018125Y4581347D01*
X5016398Y4585106D01*
X5016296Y4589221D01*
X5017820Y4593031D01*
X5238394Y4923891D01*
X5241239Y4926736D01*
X5244998Y4928260D01*
X5249011Y4928209D01*
X5252669Y4926584D01*
X5255463Y4923688D01*
X5258816Y4918405D01*
X5262880Y4914290D01*
X5267807Y4911191D01*
X5273243Y4909312D01*
X5279593Y4908600D01*
X5300167Y4908600D01*
X5300167Y4990795D01*
X5296408Y4992268D01*
X5293512Y4995011D01*
X5291937Y4998720D01*
X5291886Y5002733D01*
X5293410Y5006441D01*
X5315407Y5039360D01*
X5318455Y5042357D01*
X5322519Y5043830D01*
X5326786Y5043474D01*
X5330545Y5041392D01*
X5333085Y5037937D01*
X5334000Y5033721D01*
X5334203Y5029250D01*
X5334711Y5028488D01*
X5364886Y4998313D01*
X5367070Y4995011D01*
X5367832Y4991150D01*
X5367832Y4908600D01*
X5388406Y4908600D01*
X5394756Y4909312D01*
X5400192Y4911191D01*
X5405120Y4914290D01*
X5409184Y4918405D01*
X5412282Y4923282D01*
X5414111Y4928514D01*
X5416194Y4931968D01*
X5419496Y4934407D01*
X5423458Y4935270D01*
X5427472Y4934559D01*
X5430875Y4932324D01*
X5771438Y4591761D01*
X5773267Y4589322D01*
X5774283Y4586427D01*
X5774385Y4583430D01*
X5773978Y4580026D01*
X5773978Y4551680D01*
X5807303Y4551680D01*
X5811164Y4550918D01*
X5814466Y4548733D01*
X5850077Y4513122D01*
X5852261Y4509871D01*
X5853023Y4505960D01*
X5852261Y4502048D01*
X5850077Y4498797D01*
X5846775Y4496562D01*
X5842863Y4495800D01*
G37*

%LPC*%
G36*
X5430367Y4530344D02*
G01*
X5539892Y4530344D01*
X5539892Y4581906D01*
X5539181Y4588256D01*
X5537301Y4593691D01*
X5534202Y4598619D01*
X5530088Y4602683D01*
X5525211Y4605782D01*
X5519775Y4607712D01*
X5513425Y4608423D01*
X5430367Y4608423D01*
G37*
G36*
X5128107Y4530344D02*
G01*
X5237632Y4530344D01*
X5237632Y4608423D01*
X5154574Y4608423D01*
X5148224Y4607712D01*
X5142788Y4605782D01*
X5137912Y4602683D01*
X5133797Y4598619D01*
X5130698Y4593691D01*
X5128818Y4588256D01*
X5128107Y4581906D01*
G37*

%LPD*%
G36*
X4848860Y2819400D02*
G01*
X4844948Y2820162D01*
X4841697Y2822397D01*
X4839462Y2825648D01*
X4838700Y2829560D01*
X4838700Y2881680D01*
X4839563Y2885846D01*
X4842103Y2889250D01*
X4845761Y2891383D01*
X4849977Y2891790D01*
X4856073Y2891078D01*
X4884420Y2891078D01*
X4884420Y2944418D01*
X4848860Y2944418D01*
X4844948Y2945180D01*
X4841697Y2947365D01*
X4839462Y2950667D01*
X4838700Y2954578D01*
X4838700Y3014421D01*
X4839462Y3018332D01*
X4841697Y3021634D01*
X4844948Y3023819D01*
X4848860Y3024581D01*
X4884420Y3024581D01*
X4884420Y3077921D01*
X4856073Y3077921D01*
X4849977Y3077210D01*
X4845761Y3077616D01*
X4842103Y3079750D01*
X4839563Y3083153D01*
X4838700Y3087319D01*
X4838700Y3123184D01*
X4837988Y3124911D01*
X4811166Y3151733D01*
X4808931Y3155035D01*
X4808169Y3158947D01*
X4808931Y3162808D01*
X4811166Y3166110D01*
X4814468Y3168294D01*
X4818329Y3169107D01*
X4829454Y3169107D01*
X4835753Y3169818D01*
X4841189Y3171698D01*
X4846116Y3174796D01*
X4850180Y3178860D01*
X4853279Y3183788D01*
X4855210Y3189224D01*
X4855921Y3195574D01*
X4855921Y3223920D01*
X4802581Y3223920D01*
X4802581Y3172460D01*
X4801819Y3168548D01*
X4799634Y3165297D01*
X4796332Y3163062D01*
X4792421Y3162300D01*
X4732578Y3162300D01*
X4728667Y3163062D01*
X4725365Y3165297D01*
X4723180Y3168548D01*
X4722418Y3172460D01*
X4722418Y3223920D01*
X4669078Y3223920D01*
X4669078Y3195574D01*
X4669790Y3189224D01*
X4671720Y3183788D01*
X4675428Y3177895D01*
X4676902Y3173831D01*
X4676597Y3169564D01*
X4674514Y3165805D01*
X4671060Y3163214D01*
X4666843Y3162300D01*
X4620260Y3162300D01*
X4616348Y3163062D01*
X4613097Y3165297D01*
X4610862Y3168548D01*
X4610100Y3172460D01*
X4610100Y3342132D01*
X4610862Y3346043D01*
X4613097Y3349294D01*
X4616348Y3351529D01*
X4620260Y3352292D01*
X4659630Y3352292D01*
X4663795Y3351428D01*
X4667199Y3348888D01*
X4669282Y3345230D01*
X4669739Y3341014D01*
X4669078Y3335426D01*
X4669078Y3307079D01*
X4722418Y3307079D01*
X4722418Y3342640D01*
X4723180Y3346551D01*
X4725365Y3349802D01*
X4728667Y3352037D01*
X4732578Y3352800D01*
X4792421Y3352800D01*
X4796332Y3352037D01*
X4799634Y3349802D01*
X4801819Y3346551D01*
X4802581Y3342640D01*
X4802581Y3307079D01*
X4855921Y3307079D01*
X4855921Y3335426D01*
X4855210Y3341522D01*
X4855616Y3345738D01*
X4857750Y3349396D01*
X4861153Y3351936D01*
X4865319Y3352800D01*
X4977180Y3352800D01*
X4981346Y3351936D01*
X4984750Y3349396D01*
X4986883Y3345738D01*
X4987290Y3341522D01*
X4986578Y3335426D01*
X4986578Y3307079D01*
X5039918Y3307079D01*
X5039918Y3342640D01*
X5040680Y3346551D01*
X5042865Y3349802D01*
X5046167Y3352037D01*
X5050078Y3352800D01*
X5109921Y3352800D01*
X5113832Y3352037D01*
X5117134Y3349802D01*
X5119319Y3346551D01*
X5120081Y3342640D01*
X5120081Y3307079D01*
X5173421Y3307079D01*
X5173421Y3335426D01*
X5172964Y3339490D01*
X5173319Y3343605D01*
X5175351Y3347262D01*
X5178653Y3349802D01*
X5182666Y3350768D01*
X5186781Y3350056D01*
X5190236Y3347821D01*
X5216702Y3321304D01*
X5218938Y3318001D01*
X5219700Y3314141D01*
X5219700Y2829560D01*
X5218938Y2825648D01*
X5216702Y2822397D01*
X5213451Y2820162D01*
X5209540Y2819400D01*
G37*

%LPC*%
G36*
X4967579Y2891078D02*
G01*
X4995926Y2891078D01*
X5002276Y2891790D01*
X5007711Y2893720D01*
X5012639Y2896819D01*
X5016703Y2900883D01*
X5019802Y2905810D01*
X5021681Y2911246D01*
X5022392Y2917545D01*
X5022392Y2944418D01*
X4967579Y2944418D01*
G37*
G36*
X4967579Y3024581D02*
G01*
X5022392Y3024581D01*
X5022392Y3051454D01*
X5021681Y3057753D01*
X5019802Y3063189D01*
X5016703Y3068116D01*
X5012639Y3072180D01*
X5007711Y3075279D01*
X5002276Y3077210D01*
X4995926Y3077921D01*
X4967579Y3077921D01*
G37*
G36*
X5013045Y3169107D02*
G01*
X5039918Y3169107D01*
X5039918Y3223920D01*
X4986578Y3223920D01*
X4986578Y3195574D01*
X4987290Y3189224D01*
X4989220Y3183788D01*
X4992319Y3178860D01*
X4996383Y3174796D01*
X5001310Y3171698D01*
X5006746Y3169818D01*
G37*
G36*
X5120081Y3169107D02*
G01*
X5146954Y3169107D01*
X5153253Y3169818D01*
X5158689Y3171698D01*
X5163616Y3174796D01*
X5167680Y3178860D01*
X5170779Y3183788D01*
X5172710Y3189224D01*
X5173421Y3195574D01*
X5173421Y3223920D01*
X5120081Y3223920D01*
G37*

%LPD*%
G36*
X3592322Y2710992D02*
G01*
X3588562Y2711704D01*
X3585311Y2713837D01*
X3583076Y2716987D01*
X3582212Y2720746D01*
X3572154Y2961843D01*
X3572713Y2965704D01*
X3574745Y2969056D01*
X3577894Y2971393D01*
X3581654Y2972358D01*
X3590645Y2971292D01*
X3617518Y2971292D01*
X3617518Y3020720D01*
X3580079Y3020720D01*
X3576167Y3021482D01*
X3572865Y3023666D01*
X3570681Y3026968D01*
X3569868Y3030880D01*
X3569868Y3093720D01*
X3570681Y3097631D01*
X3572865Y3100933D01*
X3576167Y3103118D01*
X3580079Y3103880D01*
X3617518Y3103880D01*
X3617518Y3161131D01*
X3618280Y3165043D01*
X3620465Y3168294D01*
X3623767Y3170529D01*
X3627678Y3171291D01*
X3687521Y3171291D01*
X3691432Y3170529D01*
X3694734Y3168294D01*
X3696919Y3165043D01*
X3697681Y3161131D01*
X3697681Y3103880D01*
X3755745Y3103880D01*
X3759606Y3103118D01*
X3762908Y3100984D01*
X3767378Y3096564D01*
X3769664Y3093212D01*
X3770426Y3089300D01*
X3770426Y2972308D01*
X3771239Y2964078D01*
X3773474Y2956661D01*
X3777132Y2949854D01*
X3782364Y2943453D01*
X3873195Y2852623D01*
X3875430Y2849372D01*
X3876192Y2845460D01*
X3876192Y2789275D01*
X3876751Y2784144D01*
X3878275Y2779826D01*
X3880713Y2775966D01*
X3883964Y2772714D01*
X3887825Y2770276D01*
X3892143Y2768803D01*
X3897274Y2768193D01*
X4036110Y2768193D01*
X4041241Y2768803D01*
X4045559Y2770276D01*
X4049471Y2772714D01*
X4052671Y2775966D01*
X4055110Y2779826D01*
X4056634Y2784144D01*
X4057192Y2789275D01*
X4057192Y2908147D01*
X4056634Y2913278D01*
X4055110Y2917596D01*
X4052671Y2921457D01*
X4045864Y2927908D01*
X4044238Y2931668D01*
X4044238Y2935732D01*
X4045864Y2939491D01*
X4052671Y2945942D01*
X4055110Y2949854D01*
X4056634Y2954172D01*
X4057192Y2959303D01*
X4057192Y2982366D01*
X4008069Y2982366D01*
X4008069Y2939389D01*
X4007256Y2935478D01*
X4005072Y2932176D01*
X4001770Y2929991D01*
X3997909Y2929229D01*
X3935526Y2929229D01*
X3931615Y2929991D01*
X3928313Y2932176D01*
X3926128Y2935478D01*
X3925366Y2939389D01*
X3925366Y2982366D01*
X3875481Y2982366D01*
X3873296Y2979013D01*
X3870045Y2976727D01*
X3866083Y2975914D01*
X3862171Y2976676D01*
X3858869Y2978912D01*
X3852519Y2985211D01*
X3850335Y2988513D01*
X3849573Y2992374D01*
X3849573Y3109417D01*
X3848760Y3117596D01*
X3846525Y3125012D01*
X3842867Y3131870D01*
X3837635Y3138220D01*
X3748582Y3227273D01*
X3746398Y3230575D01*
X3745585Y3234436D01*
X3745585Y3332226D01*
X3745026Y3337356D01*
X3745433Y3341573D01*
X3747515Y3345230D01*
X3750868Y3347720D01*
X3754983Y3348685D01*
X3871772Y3350361D01*
X3875684Y3349650D01*
X3879037Y3347465D01*
X3881272Y3344164D01*
X3882085Y3340252D01*
X3881323Y3336340D01*
X3879087Y3333038D01*
X3877513Y3331464D01*
X3875074Y3327552D01*
X3873550Y3323234D01*
X3872992Y3318154D01*
X3872992Y3291281D01*
X3922420Y3291281D01*
X3922420Y3341065D01*
X3923182Y3344926D01*
X3925315Y3348228D01*
X3928567Y3350412D01*
X3932428Y3351225D01*
X3995267Y3352139D01*
X3999229Y3351428D01*
X4002582Y3349244D01*
X4004818Y3345942D01*
X4005579Y3341979D01*
X4005579Y3291281D01*
X4062831Y3291281D01*
X4066743Y3290519D01*
X4069994Y3288334D01*
X4072229Y3285032D01*
X4072991Y3281121D01*
X4072991Y3221278D01*
X4072229Y3217367D01*
X4069994Y3214065D01*
X4066743Y3211880D01*
X4062831Y3211118D01*
X4005579Y3211118D01*
X4005579Y3163214D01*
X4033926Y3163214D01*
X4039057Y3163773D01*
X4043375Y3165297D01*
X4047236Y3167735D01*
X4050487Y3170936D01*
X4052925Y3174847D01*
X4054398Y3179114D01*
X4056532Y3182670D01*
X4059936Y3185058D01*
X4064000Y3185922D01*
X4068064Y3185058D01*
X4071467Y3182670D01*
X4073601Y3179114D01*
X4075074Y3174847D01*
X4077512Y3170936D01*
X4080764Y3167735D01*
X4084624Y3165297D01*
X4088942Y3163773D01*
X4094073Y3163214D01*
X4233926Y3163214D01*
X4239056Y3163773D01*
X4243374Y3165297D01*
X4247235Y3167735D01*
X4250486Y3170936D01*
X4252925Y3174847D01*
X4254449Y3179165D01*
X4255008Y3184245D01*
X4255008Y3207816D01*
X4255770Y3211728D01*
X4258005Y3215030D01*
X4261307Y3217214D01*
X4265168Y3217976D01*
X4274616Y3217976D01*
X4278528Y3217214D01*
X4281830Y3215030D01*
X4307230Y3189630D01*
X4309414Y3186328D01*
X4310176Y3182416D01*
X4310176Y3091383D01*
X4309414Y3087471D01*
X4307230Y3084169D01*
X4294530Y3071520D01*
X4291431Y3069386D01*
X4287723Y3068523D01*
X4284014Y3069132D01*
X4280763Y3071012D01*
X4278376Y3073958D01*
X4277258Y3077565D01*
X4276648Y3083255D01*
X4275124Y3087573D01*
X4272686Y3091484D01*
X4269435Y3094685D01*
X4265574Y3097123D01*
X4261256Y3098647D01*
X4256125Y3099206D01*
X4117289Y3099206D01*
X4112158Y3098647D01*
X4107840Y3097123D01*
X4103928Y3094685D01*
X4100728Y3091484D01*
X4098290Y3087573D01*
X4096765Y3083255D01*
X4096207Y3078124D01*
X4096207Y2959303D01*
X4096765Y2954172D01*
X4098290Y2949854D01*
X4100728Y2945942D01*
X4107535Y2939491D01*
X4109161Y2935732D01*
X4109161Y2931668D01*
X4107535Y2927908D01*
X4100728Y2921457D01*
X4098290Y2917596D01*
X4096765Y2913278D01*
X4096207Y2908147D01*
X4096207Y2885084D01*
X4145330Y2885084D01*
X4145330Y2928061D01*
X4146143Y2931922D01*
X4148328Y2935224D01*
X4151629Y2937408D01*
X4155490Y2938221D01*
X4217873Y2938221D01*
X4221784Y2937408D01*
X4225086Y2935224D01*
X4227271Y2931922D01*
X4228033Y2928061D01*
X4228033Y2885084D01*
X4277207Y2885084D01*
X4277207Y2908147D01*
X4276648Y2913278D01*
X4275124Y2917596D01*
X4272686Y2921457D01*
X4265828Y2927908D01*
X4264253Y2931668D01*
X4264253Y2935732D01*
X4265828Y2939491D01*
X4272686Y2945942D01*
X4275124Y2949854D01*
X4276648Y2954172D01*
X4277207Y2959303D01*
X4277207Y2975356D01*
X4277918Y2979013D01*
X4279849Y2982214D01*
X4282846Y2984449D01*
X4286453Y2985465D01*
X4295648Y2986328D01*
X4302201Y2988411D01*
X4308297Y2991967D01*
X4312462Y2995523D01*
X4366514Y3049524D01*
X4371187Y3055366D01*
X4374337Y3061512D01*
X4376166Y3068320D01*
X4376623Y3073806D01*
X4376623Y3199892D01*
X4375810Y3207308D01*
X4373676Y3213862D01*
X4370171Y3220008D01*
X4366615Y3224174D01*
X4316476Y3274314D01*
X4310634Y3278987D01*
X4304487Y3282137D01*
X4297680Y3283965D01*
X4292193Y3284423D01*
X4268724Y3284423D01*
X4264812Y3285185D01*
X4261510Y3287369D01*
X4259326Y3290671D01*
X4258564Y3294583D01*
X4259326Y3298444D01*
X4261510Y3301746D01*
X4264914Y3305149D01*
X4269587Y3310940D01*
X4272737Y3317138D01*
X4274566Y3323945D01*
X4275023Y3329381D01*
X4275023Y3346196D01*
X4275785Y3350056D01*
X4277918Y3353308D01*
X4281170Y3355543D01*
X4285030Y3356356D01*
X4302556Y3356610D01*
X4306519Y3355848D01*
X4309922Y3353612D01*
X4443222Y3220313D01*
X4445406Y3217011D01*
X4446219Y3213150D01*
X4446219Y2721152D01*
X4445406Y2717241D01*
X4443222Y2713990D01*
X4439920Y2711754D01*
X4436059Y2710992D01*
G37*

%LPC*%
G36*
X4228033Y2768193D02*
G01*
X4256125Y2768193D01*
X4261256Y2768803D01*
X4265574Y2770276D01*
X4269435Y2772714D01*
X4272686Y2775966D01*
X4275124Y2779826D01*
X4276648Y2784144D01*
X4277207Y2789275D01*
X4277207Y2812338D01*
X4228033Y2812338D01*
G37*
G36*
X4117289Y2768193D02*
G01*
X4145330Y2768193D01*
X4145330Y2812338D01*
X4096207Y2812338D01*
X4096207Y2789275D01*
X4096765Y2784144D01*
X4098290Y2779826D01*
X4100728Y2775966D01*
X4103928Y2772714D01*
X4107840Y2770276D01*
X4112158Y2768803D01*
G37*
G36*
X3697681Y2971292D02*
G01*
X3724554Y2971292D01*
X3729634Y2971850D01*
X3733952Y2973374D01*
X3737864Y2975813D01*
X3741064Y2979064D01*
X3743502Y2982925D01*
X3745026Y2987243D01*
X3745585Y2992374D01*
X3745585Y3020720D01*
X3697681Y3020720D01*
G37*
G36*
X3876192Y3055061D02*
G01*
X3925366Y3055061D01*
X3925366Y3099206D01*
X3897274Y3099206D01*
X3892143Y3098647D01*
X3887825Y3097123D01*
X3883964Y3094685D01*
X3880713Y3091484D01*
X3878275Y3087573D01*
X3876751Y3083255D01*
X3876192Y3078124D01*
G37*
G36*
X4008069Y3055061D02*
G01*
X4057192Y3055061D01*
X4057192Y3078124D01*
X4056634Y3083255D01*
X4055110Y3087573D01*
X4052671Y3091484D01*
X4049471Y3094685D01*
X4045559Y3097123D01*
X4041241Y3098647D01*
X4036110Y3099206D01*
X4008069Y3099206D01*
G37*
G36*
X3894074Y3163214D02*
G01*
X3922420Y3163214D01*
X3922420Y3211118D01*
X3872992Y3211118D01*
X3872992Y3184245D01*
X3873550Y3179165D01*
X3875074Y3174847D01*
X3877513Y3170936D01*
X3880764Y3167735D01*
X3884625Y3165297D01*
X3888943Y3163773D01*
G37*

%LPD*%
D10*
X3860800Y4036212D02*
G01*
X2506599Y4036212D01*
X2456992Y3986606D01*
X4692192Y4237405D02*
G01*
X4694610Y4237405D01*
X4811527Y4354319D01*
X4938773Y4481573D01*
X4953000Y4481573D01*
D11*
X3657600Y3262299D02*
G01*
X3810000Y3109899D01*
X3810000Y2971800D01*
X3933106Y2848701D01*
X3966700Y2848701D01*
D10*
X4692192Y4187393D02*
G01*
X4499406Y4187393D01*
X4495800Y4191000D01*
X4342206Y3537407D02*
G01*
X4342206Y3696893D01*
X4305300Y3733800D01*
X4392193Y3537407D02*
G01*
X4392193Y3456406D01*
X4457700Y3390900D01*
X4687912Y3390900D01*
X4762500Y3465494D01*
D12*
X3710000Y4648200D02*
G01*
X3643299Y4714900D01*
X3643299Y4953000D01*
X3643299Y4953000D02*
G01*
X3668699Y4978400D01*
X3887800Y4978400D01*
D10*
X3709926Y4648200D02*
G01*
X3709926Y4595873D01*
X3918407Y4387392D01*
X3992194Y4387392D01*
D13*
X4192015Y5263134D02*
G01*
X4192015Y5182615D01*
X4114800Y5105400D01*
X4114800Y4816094D01*
X4138168Y4792726D01*
X4138168Y4470145D01*
X4142231Y4466081D01*
X4142231Y4387342D01*
D10*
X4692192Y3887393D02*
G01*
X4382693Y3887393D01*
X4381500Y3886200D01*
X4062041Y5263108D02*
G01*
X4062041Y5255841D01*
X3937000Y5130800D01*
D12*
X5829300Y3567092D02*
G01*
X5838791Y3557600D01*
X6210300Y3557600D01*
D11*
X6429629Y4495800D02*
G01*
X6424599Y4500829D01*
X6424599Y4953000D01*
D12*
X6210300Y4214809D02*
G01*
X6219570Y4224080D01*
X6219570Y4495800D01*
X5104002Y5059502D02*
G01*
X5104002Y5280195D01*
X5234007Y5410200D01*
D10*
X5104002Y5059502D02*
G01*
X5073700Y5029200D01*
X4533900Y5029200D01*
X4322038Y5241061D01*
X4322038Y5263108D01*
D11*
X5829300Y3367092D02*
G01*
X5867400Y3328992D01*
X5867400Y3200400D01*
X3276600Y3757599D02*
G01*
X3278200Y3759200D01*
X3429000Y3759200D01*
X3581400Y3757599D02*
G01*
X3478199Y3860800D01*
X3429000Y3860800D01*
D10*
X3149600Y4191000D02*
G01*
X3203193Y4137405D01*
X3842207Y4137405D01*
D12*
X3581400Y3557600D02*
G01*
X3276600Y3557600D01*
D11*
X3022600Y3557600D02*
G01*
X3022625Y3557574D01*
X3022625Y3022600D01*
X6210300Y4014784D02*
G01*
X6323015Y4127500D01*
X6667500Y4127500D01*
D12*
X5486400Y3550894D02*
G01*
X5502597Y3567092D01*
X5829300Y3567092D01*
X5080000Y3465576D02*
G01*
X5145024Y3465576D01*
X5379720Y3230879D01*
X5486400Y3230879D01*
X4762500Y3465494D02*
G01*
X5080000Y3465494D01*
D11*
X6210300Y3757599D02*
G01*
X6326200Y3873500D01*
X6667500Y3873500D01*
D10*
X4241800Y3530600D02*
G01*
X4241800Y3329000D01*
X4163999Y3251200D01*
X4292193Y3537407D02*
G01*
X4292193Y3418306D01*
X4726000Y2984500D01*
X4692192Y4187393D02*
G01*
X4778700Y4187393D01*
X4872807Y4281500D01*
X4953000Y4281500D01*
X3581400Y3757599D02*
G01*
X3601593Y3737406D01*
X3842207Y3737406D01*
X3842207Y3687394D02*
G01*
X3712413Y3557600D01*
X3581400Y3557600D01*
D11*
X3909999Y4648200D02*
G01*
X3909999Y4675200D01*
X3784600Y4800600D01*
D10*
X3842207Y4087393D02*
G01*
X2592806Y4087393D01*
X2438400Y4241800D01*
D12*
X3276600Y3557600D02*
G01*
X3222472Y3503472D01*
X3222472Y3022600D01*
X6210300Y3557600D02*
G01*
X6272199Y3619500D01*
X6667500Y3619500D01*
X5867400Y4510107D02*
G01*
X5881707Y4495800D01*
X6219570Y4495800D01*
X5943600Y4152900D02*
G01*
X6005509Y4214809D01*
X6210300Y4214809D01*
D10*
X3979491Y3550109D02*
G01*
X3979491Y3657600D01*
X3949697Y3687394D01*
X3842207Y3687394D01*
X6210300Y4014726D02*
G01*
X6186426Y4038600D01*
X4953000Y4038600D01*
X4854193Y4137405D01*
X4692192Y4137405D01*
D11*
X3581400Y5689600D02*
G01*
X3454400Y5816600D01*
X2743200Y5816600D01*
X2641600Y5715000D01*
X2641600Y5461000D01*
X2438400Y5257800D01*
D10*
X6210300Y3757599D02*
G01*
X6005499Y3962400D01*
X4914900Y3962400D01*
X4789906Y4087393D01*
X4692192Y4087393D01*
X3909999Y4648200D02*
G01*
X4042206Y4515993D01*
X4042206Y4387392D01*
D13*
X4257040Y5263134D02*
G01*
X4257040Y5201665D01*
X4240784Y5185410D01*
X4240784Y4849368D01*
X4192270Y4800600D01*
X4192270Y4387342D01*
D10*
X3053841Y3743705D02*
G01*
X3053841Y3923029D01*
X3118611Y3987800D01*
X3649725Y3987800D01*
X3752595Y3887470D01*
X3842258Y3887470D01*
X4192270Y3537457D02*
G01*
X4192270Y3430270D01*
X4165600Y3403600D01*
X3733800Y3403600D01*
X3657600Y3327400D01*
X3657600Y3262376D01*
X4013200Y4800600D02*
G01*
X4092191Y4721608D01*
X4092191Y4387390D01*
X4186707Y3018713D02*
G01*
X4288713Y3018713D01*
X4343400Y3073400D01*
X4343400Y3200400D01*
X4292600Y3251200D01*
X4163999Y3251200D01*
D12*
X6210300Y3557600D02*
G01*
X5943600Y3824300D01*
X5943600Y3886200D01*
X3643299Y4953000D02*
G01*
X3581400Y5014899D01*
X3581400Y5689600D01*
D10*
X3842258Y4237481D02*
G01*
X3441700Y4237481D01*
X3073400Y4605781D01*
X3073400Y5689600D01*
D11*
X3443300Y4953000D02*
G01*
X3252800Y5143500D01*
X3200400Y5143500D01*
D14*
G01*
X5486400Y3230879D03*
G01*
X5486400Y3550894D03*
D15*
G01*
X3443297Y4953000D03*
G01*
X3643302Y4953000D03*
D16*
G01*
X3581400Y3757602D03*
D17*
G01*
X3581400Y3557600D03*
D16*
G01*
X4953000Y4281497D03*
D17*
G01*
X4953000Y4481499D03*
D16*
G01*
X3276600Y3757602D03*
D17*
G01*
X3276600Y3557600D03*
D18*
G01*
X3910002Y4648200D03*
G01*
X3709997Y4648200D03*
D16*
G01*
X4762500Y3265497D03*
D17*
G01*
X4762500Y3465499D03*
D16*
G01*
X5080000Y3265497D03*
D17*
G01*
X5080000Y3465499D03*
D16*
G01*
X5829300Y3367097D03*
D17*
G01*
X5829300Y3567099D03*
D18*
G01*
X4926002Y2984500D03*
G01*
X4725997Y2984500D03*
D15*
G01*
X3963997Y3251200D03*
G01*
X4164002Y3251200D03*
D16*
G01*
X3657600Y3062297D03*
D17*
G01*
X3657600Y3262299D03*
D18*
G01*
X5434002Y5410200D03*
G01*
X5233997Y5410200D03*
D16*
G01*
X5867400Y4710102D03*
D17*
G01*
X5867400Y4510100D03*
D19*
G01*
X6219570Y4495800D03*
G01*
X6429629Y4495800D03*
D20*
G01*
X3022600Y3557595D03*
D21*
G01*
X3022600Y3757599D03*
D22*
G01*
X4087804Y4978400D03*
G01*
X3887795Y4978400D03*
G01*
X6424604Y4953000D03*
G01*
X6224595Y4953000D03*
D20*
G01*
X6210300Y4214804D03*
D21*
G01*
X6210300Y4014800D03*
D20*
G01*
X6210300Y3557595D03*
D21*
G01*
X6210300Y3757599D03*
D23*
G01*
X5563997Y5059502D03*
G01*
X5334000Y5059502D03*
G01*
X5104002Y5059502D03*
D24*
G01*
X5334000Y4465497D03*
D25*
G01*
X3992194Y3537407D03*
G01*
X4042206Y3537407D03*
G01*
X4092193Y3537407D03*
G01*
X4142206Y3537407D03*
G01*
X4192193Y3537407D03*
G01*
X4242206Y3537407D03*
G01*
X4292193Y3537407D03*
G01*
X4342206Y3537407D03*
G01*
X4392193Y3537407D03*
G01*
X4442206Y3537407D03*
G01*
X4492193Y3537407D03*
G01*
X4542205Y3537407D03*
D26*
G01*
X4692192Y3687394D03*
G01*
X4692192Y3737406D03*
G01*
X4692192Y3787394D03*
G01*
X4692192Y3837406D03*
G01*
X4692192Y3887393D03*
G01*
X4692192Y3937406D03*
G01*
X4692192Y3987393D03*
G01*
X4692192Y4037406D03*
G01*
X4692192Y4087393D03*
G01*
X4692192Y4137405D03*
G01*
X4692192Y4187393D03*
G01*
X4692192Y4237405D03*
D25*
G01*
X4542205Y4387392D03*
G01*
X4492193Y4387392D03*
G01*
X4442206Y4387392D03*
G01*
X4392193Y4387392D03*
G01*
X4342206Y4387392D03*
G01*
X4292193Y4387392D03*
G01*
X4242206Y4387392D03*
G01*
X4192193Y4387392D03*
G01*
X4142206Y4387392D03*
G01*
X4092193Y4387392D03*
G01*
X4042206Y4387392D03*
G01*
X3992194Y4387392D03*
D26*
G01*
X3842207Y4237405D03*
G01*
X3842207Y4187393D03*
G01*
X3842207Y4137405D03*
G01*
X3842207Y4087393D03*
G01*
X3842207Y4037406D03*
G01*
X3842207Y3987393D03*
G01*
X3842207Y3937406D03*
G01*
X3842207Y3887393D03*
G01*
X3842207Y3837406D03*
G01*
X3842207Y3787394D03*
G01*
X3842207Y3737406D03*
G01*
X3842207Y3687394D03*
D27*
G01*
X4127042Y5263108D03*
G01*
X4192041Y5263108D03*
G01*
X4257040Y5263108D03*
G01*
X4322038Y5263108D03*
G01*
X4062044Y5263108D03*
D28*
G01*
X3966700Y2848711D03*
G01*
X4186699Y2848711D03*
D29*
G01*
X4186707Y3018713D03*
D30*
G01*
X3966700Y3018713D03*
D31*
G01*
X6667500Y3365500D03*
D32*
G01*
X6667500Y3619500D03*
G01*
X6667500Y3873500D03*
G01*
X6667500Y4127500D03*
D31*
G01*
X2438400Y3479800D03*
D32*
G01*
X2438400Y3733800D03*
G01*
X2438400Y3987800D03*
G01*
X2438400Y4241800D03*
G01*
X2438400Y4495800D03*
G01*
X2438400Y4749800D03*
G01*
X2438400Y5003800D03*
G01*
X2438400Y5257800D03*
D31*
G01*
X3581400Y5689600D03*
D32*
G01*
X3327400Y5689600D03*
G01*
X3073400Y5689600D03*
G01*
X2819400Y5689600D03*
D33*
G01*
X3831005Y5557240D03*
G01*
X4550994Y5557291D03*
D34*
G01*
X4433493Y5277281D03*
G01*
X3948506Y5277281D03*
D35*
G01*
X2822727Y3022600D03*
G01*
X3022625Y3022600D03*
G01*
X3222472Y3022600D03*
D36*
G01*
X3432530Y3022600D03*
G01*
X2612643Y3022600D03*
D37*
G01*
X3784600Y4800600D03*
D38*
G01*
X3149600Y4191000D03*
G01*
X3429000Y3860800D03*
G01*
X3429000Y3759200D03*
G01*
X5867400Y3200400D03*
G01*
X6057900Y5105400D03*
G01*
X5943600Y4953000D03*
G01*
X5715000Y5105400D03*
G01*
X5715000Y5334000D03*
G01*
X3937000Y5130800D03*
D37*
G01*
X4381500Y3886200D03*
D38*
G01*
X4013200Y4800600D03*
G01*
X3200400Y5143500D03*
G01*
X4343400Y2933700D03*
G01*
X3810000Y3327400D03*
G01*
X3606800Y2895600D03*
G01*
X3810000Y3225800D03*
G01*
X5143500Y2933700D03*
G01*
X5143500Y3124200D03*
G01*
X4914900Y3200400D03*
G01*
X4305300Y3733800D03*
G01*
X4504893Y4200093D03*
D37*
G01*
X5943600Y3886200D03*
G01*
X5943600Y4152900D03*
D39*
G01*
X6680200Y2819400D03*
G01*
X6680200Y5664200D03*
G01*
X2438400Y5664200D03*
G01*
X2438400Y2819400D03*
M02*
